<svg width="80" height="80" viewBox="0 0 80 80" fill="none" xmlns="http://www.w3.org/2000/svg">
<g clip-path="url(#clip0_191_11)">
<path d="M79.984 61.4376C79.8165 59.2663 78.4093 57.256 75.914 55.6171C71.5727 52.7656 67.0543 50.0588 62.6859 47.4454L62.1514 47.1237C57.9538 44.6083 54.139 45.2661 50.4918 49.1373C50.3702 49.2632 50.2396 49.3799 50.1009 49.4863C50.0622 49.5128 50.025 49.5412 49.9892 49.5715C48.7894 50.448 46.8094 51.0286 46.1186 50.7568C38.3981 47.7107 32.7501 41.9964 29.3295 33.7748C29.0519 33.1058 29.4044 31.2916 29.8081 30.8702C37.1217 25.7044 34.4685 19.4931 31.8359 15.2697C31.2371 14.3112 30.6425 13.3564 30.0522 12.4053C28.3993 9.73073 26.681 6.96607 24.9355 4.27538C23.2523 1.67959 21.3122 0.254634 19.1695 0.0310805C17.0858 -0.184432 14.9974 0.758032 12.9456 2.83113C11.5288 4.26573 10.1806 5.7904 8.87714 7.25556C7.6582 8.64031 6.38183 10.0717 5.08152 11.3985C-0.405296 17.0002 -1.43597 23.5894 1.92728 31.5425C6.61477 42.6204 12.9233 52.1866 20.674 59.9788C28.5046 67.8498 38.0343 74.1319 48.9952 78.6528H49.0048L49.0766 78.6833C51.2011 79.5518 53.4722 79.998 55.7648 79.9973C59.9369 79.9922 63.9781 78.5285 67.1995 75.856C70.4527 73.1621 73.9212 70.2542 77.2254 67.258C79.7032 65.0128 80.0925 62.8512 79.984 61.4376ZM18.844 3.22999C20.2624 3.37634 21.4877 4.83829 22.2647 6.03486C23.991 8.6982 25.6966 11.4484 27.3463 14.1101C27.9398 15.0655 28.5333 16.0208 29.1268 16.9761C31.8806 21.3925 32.1104 24.2505 29.6948 26.7755L15.2989 5.01037C16.5928 3.72213 17.791 3.12223 18.844 3.22999ZM65.1733 73.3743C63.1277 75.0788 60.6636 76.1949 58.041 76.6048C55.4184 77.0147 52.7347 76.7032 50.2732 75.7032L50.2126 75.679H50.203C29.197 67.0119 13.9412 51.7395 4.86294 30.28C1.9911 23.4801 2.75373 18.3544 7.35188 13.6598C8.70802 12.2751 10.0035 10.8131 11.2576 9.39942C11.8431 8.73841 12.4446 8.06614 13.0445 7.3987L27.2825 28.9161C26.0939 30.4858 25.7285 33.4194 26.3954 35.0148C28.2238 39.4135 30.692 43.2171 33.7346 46.3308C36.9159 49.5775 40.7457 52.1053 44.9698 53.7467C46.6371 54.4045 49.1021 53.8174 50.9959 52.7367L72.3146 67.3464C69.9134 69.4292 67.4883 71.4556 65.1733 73.3743ZM75.0907 64.8697C74.987 64.9646 74.8801 65.0578 74.7716 65.1511L53.5519 50.6073C55.8653 48.4891 57.8868 48.3058 60.5209 49.8835L61.0554 50.2052C65.3966 52.8058 69.8847 55.4981 74.1733 58.311C75.7815 59.3661 76.7165 60.5626 76.8026 61.6884C76.8808 62.6969 76.3049 63.768 75.0907 64.8697V64.8697Z" fill="white"/>
<path d="M45.6003 23.0359C47.7257 23.0385 49.7633 23.8908 51.266 25.4059C52.7687 26.921 53.6139 28.9752 53.616 31.1176C53.616 31.5442 53.7841 31.9533 54.0833 32.2549C54.3825 32.5565 54.7883 32.7259 55.2114 32.7259C55.6346 32.7259 56.0404 32.5565 56.3396 32.2549C56.6388 31.9533 56.8069 31.5442 56.8069 31.1176C56.8035 28.1225 55.6218 25.2509 53.5209 23.1329C51.4201 21.0148 48.5716 19.8232 45.6003 19.8193C45.1772 19.8193 44.7714 19.9888 44.4722 20.2904C44.173 20.592 44.0049 21.0011 44.0049 21.4276C44.0049 21.8542 44.173 22.2633 44.4722 22.5649C44.7714 22.8665 45.1772 23.0359 45.6003 23.0359V23.0359Z" fill="white"/>
<path d="M45.6004 13.3494C50.2738 13.3545 54.7545 15.2281 58.0593 18.5592C61.3641 21.8903 63.2232 26.4068 63.2287 31.1179C63.2287 31.5444 63.3968 31.9535 63.696 32.2551C63.9952 32.5567 64.401 32.7262 64.8241 32.7262C65.2473 32.7262 65.6531 32.5567 65.9523 32.2551C66.2515 31.9535 66.4196 31.5444 66.4196 31.1179C66.4196 19.5462 57.0797 10.1328 45.6004 10.1328C45.1772 10.1328 44.7714 10.3023 44.4722 10.6039C44.173 10.9055 44.0049 11.3146 44.0049 11.7411C44.0049 12.1677 44.173 12.5767 44.4722 12.8784C44.7714 13.18 45.1772 13.3494 45.6004 13.3494Z" fill="white"/>
<path d="M45.6004 3.658C60.6201 3.658 72.8398 15.976 72.8398 31.1181C72.8398 31.5447 73.0079 31.9537 73.3071 32.2553C73.6063 32.557 74.0121 32.7264 74.4353 32.7264C74.8584 32.7264 75.2642 32.557 75.5634 32.2553C75.8626 31.9537 76.0307 31.5447 76.0307 31.1181C76.0307 14.2036 62.3831 0.441406 45.6004 0.441406C45.1772 0.441406 44.7714 0.610852 44.4722 0.912466C44.173 1.21408 44.0049 1.62316 44.0049 2.04971C44.0049 2.47625 44.173 2.88533 44.4722 3.18694C44.7714 3.48856 45.1772 3.658 45.6004 3.658V3.658Z" fill="white"/>
</g>
<defs>
<clipPath id="clip0_191_11">
<rect width="80" height="80" fill="white"/>
</clipPath>
</defs>
</svg>
