<svg width="60" height="60" viewBox="0 0 60 60" fill="none" xmlns="http://www.w3.org/2000/svg">
<path d="M26.1814 20.6031V24.6898H23.1876V29.6846H26.1814V44.5325H32.3354V29.6846H36.4638C36.4638 29.6846 36.8529 27.2896 37.04 24.669H32.3592V21.256C32.3592 20.7426 33.0304 20.057 33.6957 20.057H37.046V14.8545H32.4869C26.03 14.8545 26.1814 19.8552 26.1814 20.6031Z" fill="white"/>
<path d="M30.0579 53.436C36.3596 53.436 42.4032 50.9346 46.8591 46.482C51.3151 42.0295 53.8184 35.9905 53.8184 29.6936C53.8184 23.3967 51.3151 17.3578 46.8591 12.9052C42.4032 8.45265 36.3596 5.95122 30.0579 5.95122C23.7562 5.95122 17.7126 8.45265 13.2566 12.9052C8.80062 17.3578 6.29728 23.3967 6.29728 29.6936C6.29728 35.9905 8.80062 42.0295 13.2566 46.482C17.7126 50.9346 23.7562 53.436 30.0579 53.436ZM30.0579 59.3716C13.6542 59.3716 0.357138 46.0848 0.357138 29.6936C0.357138 13.3025 13.6542 0.015625 30.0579 0.015625C46.4616 0.015625 59.7586 13.3025 59.7586 29.6936C59.7586 46.0848 46.4616 59.3716 30.0579 59.3716Z" fill="white"/>
</svg>
