<svg width="80" height="80" viewBox="0 0 80 80" fill="none" xmlns="http://www.w3.org/2000/svg">
<path d="M16.5332 24.5493C16.5332 11.5892 27.0404 1.08203 40.0005 1.08203C52.9606 1.08203 63.4678 11.5892 63.4678 24.5493C63.4678 43.3271 47.1136 47.803 41.4877 68.7994L40.0005 74.3487L38.5132 68.7994C32.8873 47.803 16.5332 43.3271 16.5332 24.5493ZM29.7938 75.836H50.2072V78.9182H29.7938V75.836ZM40.0005 13.9939C45.8295 13.9939 50.5568 18.7203 50.5568 24.5493C50.5568 30.3793 45.8295 35.1056 40.0005 35.1056C34.1715 35.1056 29.4442 30.3783 29.4442 24.5493C29.4442 18.7203 34.1715 13.9939 40.0005 13.9939ZM40.0005 17.0762C35.8732 17.0762 32.5273 20.422 32.5273 24.5493C32.5273 28.6775 35.8732 32.0224 40.0005 32.0224C44.1278 32.0224 47.4736 28.6775 47.4736 24.5493C47.4736 20.422 44.1278 17.0762 40.0005 17.0762ZM60.3855 24.5493C60.3855 13.2909 51.2588 4.16426 40.0005 4.16426C28.7421 4.16426 19.6154 13.2909 19.6154 24.5493C19.6154 40.4839 33.3617 45.6572 40.0005 63.3578C46.6393 45.6572 60.3855 40.483 60.3855 24.5493Z" fill="white"/>
</svg>
