<svg width="66" height="65" viewBox="0 0 66 65" fill="#FFFFFF" xmlns="http://www.w3.org/2000/svg">
<path d="M14.2744 19.873C14.2744 9.45796 22.7215 1.01416 33.1406 1.01416C43.5597 1.01416 52.0068 9.45796 52.0068 19.873C52.0068 34.9633 38.8591 38.5602 34.3363 55.4334L33.1406 59.893L31.945 55.4334C27.4221 38.5602 14.2744 34.9633 14.2744 19.873ZM24.9351 61.0882H41.3461V63.5651H24.9351V61.0882ZM33.1406 11.3905C37.8268 11.3905 41.6272 15.1887 41.6272 19.873C41.6272 24.5581 37.8268 28.3563 33.1406 28.3563C28.4544 28.3563 24.654 24.5573 24.654 19.873C24.654 15.1887 28.4544 11.3905 33.1406 11.3905ZM33.1406 13.8674C29.8225 13.8674 27.1327 16.5562 27.1327 19.873C27.1327 23.1905 29.8225 25.8786 33.1406 25.8786C36.4587 25.8786 39.1485 23.1905 39.1485 19.873C39.1485 16.5562 36.4587 13.8674 33.1406 13.8674ZM49.5289 19.873C49.5289 10.8255 42.1916 3.49111 33.1406 3.49111C24.0896 3.49111 16.7523 10.8255 16.7523 19.873C16.7523 32.6784 27.8034 36.8358 33.1406 51.0604C38.4778 36.8358 49.5289 32.6777 49.5289 19.873Z" fill="#895737"/>
</svg>
