<svg width="80" height="80" viewBox="0 0 80 80" fill="none" xmlns="http://www.w3.org/2000/svg">
<g clip-path="url(#clip0_191_26)">
<path d="M24.9825 18.3643C24.9825 17.2402 25.8935 16.3276 27.0184 16.3276H42.7531C43.878 16.3276 44.789 17.2394 44.789 18.3643C44.789 19.4892 43.878 20.4011 42.7531 20.4011H27.0184C25.8935 20.4011 24.9825 19.4892 24.9825 18.3643ZM26.7629 30.3513H53.2584C54.3833 30.3513 55.2943 29.4394 55.2943 28.3145C55.2943 27.1896 54.3833 26.2778 53.2584 26.2778H26.7629C25.638 26.2778 24.727 27.1896 24.727 28.3145C24.727 29.4394 25.638 30.3513 26.7629 30.3513ZM26.7629 40.3015H53.2584C54.3833 40.3015 55.2943 39.3896 55.2943 38.2647C55.2943 37.1398 54.3833 36.228 53.2584 36.228H26.7629C25.638 36.228 24.727 37.1398 24.727 38.2647C24.727 39.3896 25.638 40.3015 26.7629 40.3015ZM79.0364 33.2664V77.5562C79.0364 78.6811 78.1253 79.5921 77.0004 79.5921H2.99881C1.87391 79.5921 0.962891 78.6811 0.962891 77.5562V33.2664C0.962891 32.6615 1.23146 32.0876 1.69677 31.7007L14.1066 21.3856V10.0345C14.1066 8.91045 15.0176 7.9978 16.1425 7.9978H30.158L38.6951 0.880245C39.4527 0.250041 40.5515 0.250857 41.3057 0.882694L49.8094 7.9978H53.6519C54.2004 7.9978 54.7253 8.21902 55.1082 8.61086C61.9131 15.5774 65.3155 19.0721 65.3155 19.0721C65.6862 19.4525 65.8927 19.9619 65.8927 20.4925V21.37L78.3025 31.6998C78.7678 32.0884 79.0364 32.6615 79.0364 33.2664ZM5.03473 36.8582V71.8745L24.3319 48.4076L5.03473 36.8582ZM7.30901 75.5202H72.6902L52.1343 50.5227L41.0453 57.1594C40.7229 57.3513 40.3613 57.4484 39.9996 57.4484C39.638 57.4484 39.2755 57.3529 38.9539 57.1594L27.8649 50.5227L7.30901 75.5202ZM74.9645 71.8745V36.8582L55.6674 48.4076L74.9645 71.8745ZM55.6886 18.2256H58.8021C57.927 17.3284 56.8837 16.2598 55.6886 15.0345V18.2256ZM65.8935 26.6696V37.5407L73.4911 32.9937L65.8935 26.6696ZM36.518 7.9978H43.4633L39.9972 5.09739L36.518 7.9978ZM18.1792 12.0713V39.979L39.9996 53.0386L61.8209 39.9782V22.2982H53.6527C52.5278 22.2982 51.6168 21.3864 51.6168 20.2615V12.0713H18.1792ZM14.1066 26.6811L6.51065 32.9945L14.1066 37.5407V26.6811Z" fill="white"/>
</g>
<defs>
<clipPath id="clip0_191_26">
<rect width="80" height="80" fill="white"/>
</clipPath>
</defs>
</svg>
