<svg width="100" height="100" viewBox="0 0 100 100" fill="none" xmlns="http://www.w3.org/2000/svg">
<g clip-path="url(#clip0_103_98)">
<path fill-rule="evenodd" clip-rule="evenodd" d="M23.2171 18.2114L23.2946 18.2144L23.3713 18.2181L23.4487 18.2224L23.5255 18.229L23.6024 18.2369L23.6793 18.2463L23.7562 18.2557L23.8332 18.2679L23.9095 18.2809L23.9865 18.2945L24.0629 18.3103L24.1393 18.3261L24.2165 18.3439L24.2929 18.3626L24.3687 18.3819L24.4453 18.4034L24.5218 18.4248L24.5985 18.4477L24.6744 18.4713L24.7511 18.497L24.8263 18.5228L24.9031 18.5499L24.9791 18.5778L25.0552 18.6071L25.1335 18.6384L25.2837 18.6992L25.4354 18.7656L25.5879 18.8355L25.7399 18.909L25.8919 18.9853L26.0448 19.0651L26.197 19.1485L26.3494 19.2347L26.5018 19.3238L26.655 19.4164L26.807 19.5119L26.9604 19.6101L27.1132 19.7105L27.2661 19.8152L27.419 19.9213L27.5721 20.0302L27.7252 20.1419L27.8784 20.2565L28.031 20.3733L28.1844 20.4921L28.3371 20.6145L28.4899 20.7384L28.6435 20.8643L28.7957 20.9917L28.9487 21.1226L29.1003 21.255L29.2528 21.3895L29.4052 21.5254L29.5564 21.6642L29.709 21.8044L29.8595 21.9468L30.0108 22.0898L30.1614 22.235L30.3114 22.3824L30.4607 22.5305L30.61 22.6815L30.7587 22.8318L30.9074 22.9849L31.0548 23.1395L31.2015 23.2948L31.3482 23.4515L31.4942 23.609L31.6389 23.768L31.7836 23.9284L31.9276 24.0895L32.0695 24.2514L32.2122 24.414L32.3527 24.5774L32.4933 24.7422L32.6325 24.9071L32.771 25.0727L32.9088 25.2391L33.1802 25.5734L33.3138 25.7414L33.4466 25.9087L33.5781 26.0775L33.7089 26.2456L33.8383 26.4152L33.9662 26.5834L34.0928 26.7531L34.2186 26.9221L34.4646 27.2604L34.5854 27.4289L34.7048 27.5975L34.8228 27.7662L34.9387 27.9342L35.0538 28.1016L35.1661 28.2691L35.2777 28.4359L35.3871 28.6021L35.4944 28.7677L35.6009 28.9326L35.7053 29.0969L35.8076 29.2606L35.9077 29.4236L36.0063 29.5853L36.1021 29.7472L36.1972 29.9069L36.2894 30.0668L36.3794 30.2246L36.4673 30.3818L36.5537 30.5377L36.6372 30.6923L36.7186 30.8462L36.7985 30.9988L36.8748 31.1495L36.9497 31.3001L37.0217 31.4481L37.0915 31.5955L37.1584 31.7416L37.2232 31.8856L37.2858 32.0291L37.3455 32.1698L37.403 32.3099L37.4577 32.4487L37.5095 32.5862L37.5583 32.721L37.6044 32.856L37.6482 32.9889L37.6892 33.1205L37.7265 33.2501L37.761 33.3785L37.7789 33.4515L37.7953 33.5231L37.8103 33.5949L37.8246 33.6673L37.8367 33.7392L37.8475 33.8111L37.8575 33.8838L37.8654 33.9558L37.8784 34.1L37.8827 34.1715L37.8857 34.243L37.8872 34.3147L37.888 34.3856L37.8866 34.4573L37.8846 34.5284L37.8818 34.5988L37.8776 34.6692L37.872 34.7397L37.8649 34.8103L37.8572 34.8802L37.8373 35.0187L37.8267 35.0873L37.814 35.1567L37.8012 35.2247L37.7855 35.2928L37.7706 35.3602L37.7543 35.4276L37.7365 35.4951L37.6995 35.6288L37.6788 35.695L37.6569 35.7641L37.6133 35.8916L37.5655 36.0208L37.5134 36.1487L37.4592 36.276L37.4021 36.402L37.3414 36.526L37.2792 36.6487L37.2142 36.7715L37.1456 36.8924L37.0756 37.0133L37.0034 37.1322L36.9283 37.2512L36.8518 37.3688L36.7731 37.4844L36.6923 37.6008L36.61 37.7159L36.5256 37.8303L36.4391 37.9441L36.3518 38.0573L36.2623 38.1698L36.1722 38.2817L36.0799 38.3929L35.9868 38.5035L35.8923 38.6141L35.7957 38.7241L35.6011 38.9428L35.5016 39.0515L35.3011 39.2676L35.1981 39.3758L34.9933 39.5892L34.785 39.8021L34.5752 40.0137L34.364 40.2252L34.152 40.4347L33.9386 40.6443L33.5145 41.0605L33.3039 41.2671L33.0953 41.4729L32.8889 41.6779L32.6852 41.8828L32.4851 42.0868L32.2879 42.2906L32.1924 42.3921L32.0977 42.4928L32.0029 42.5935L31.819 42.7947L31.7299 42.8951L31.6415 42.9948L31.5545 43.0945L31.4703 43.194L31.3868 43.2928L31.3062 43.3915L31.227 43.4901L31.1492 43.5886L31.0735 43.6863L31.0006 43.784L30.9291 43.8801L30.8611 43.9768L30.7939 44.0727L30.7295 44.1685L30.6671 44.2635L30.6083 44.3577L30.551 44.4518L30.4964 44.5443L30.4439 44.6375L30.3943 44.7291L30.3475 44.8206L30.3034 44.9105L30.2622 45.0004L30.2231 45.0894L30.1876 45.1775L30.1541 45.2649L30.1228 45.3543L30.1092 45.3939L30.0956 45.4364L30.0827 45.4795L30.0706 45.5219L30.0591 45.5636L30.0483 45.6059L30.0375 45.6469L30.0282 45.6892L30.0188 45.73L30.0109 45.7708L30.0037 45.8123L29.9906 45.8938L29.9847 45.9338L29.9796 45.9745L29.9759 46.0151L29.9721 46.0543L29.9691 46.0942L29.9668 46.1347L29.9659 46.1738L29.9643 46.2136L29.9641 46.2534L29.9653 46.293L29.9658 46.3321L29.9697 46.4114L29.9731 46.4517L29.9812 46.5308L29.9867 46.5703L29.9991 46.6507L30.006 46.6901L30.0151 46.7302L30.0234 46.7709L30.0332 46.8117L30.0437 46.8517L30.0675 46.9344L30.0801 46.975L30.1184 47.0904L30.1604 47.2092L30.2053 47.3307L30.2532 47.4549L30.3046 47.5825L30.3604 47.7127L30.4178 47.8457L30.4794 47.9814L30.5447 48.1205L30.6129 48.2608L30.684 48.4038L30.7581 48.5496L30.835 48.6967L30.9148 48.8464L30.9982 48.9982L31.0846 49.1526L31.1731 49.3077L31.2653 49.4661L31.3596 49.6252L31.4567 49.7855L31.5569 49.9486L31.6591 50.1137L31.7643 50.2787L31.8723 50.4463L31.9818 50.6154L32.0942 50.7857L32.2095 50.9573L32.3269 51.1296L32.4465 51.3038L32.5682 51.4787L32.6922 51.6556L32.8175 51.8325L32.9465 52.0113L33.0769 52.1901L33.2087 52.3702L33.3427 52.5509L33.4796 52.7329L33.6179 52.9149L33.7576 53.0982L33.8995 53.2821L34.0428 53.466L34.1883 53.6505L34.3352 53.8363L34.4835 54.0221L34.6333 54.2078L34.7852 54.3941L34.9378 54.5811L35.0918 54.768L35.248 54.9556L35.4049 55.1424L35.7229 55.5173L36.0467 55.8919L36.2099 56.0791L36.3739 56.2656L36.5386 56.4528L36.8722 56.8255L37.0404 57.0118L37.2093 57.1974L37.3789 57.3822L37.5492 57.5677L37.7201 57.7511L37.8918 57.9351L38.2379 58.3002L38.411 58.4814L38.5854 58.6624L38.7591 58.8428L38.9342 59.0217L39.1085 59.2L39.2849 59.3774L39.4599 59.5535L39.6356 59.7288L39.8127 59.9027L39.9882 60.0752L40.1645 60.2469L40.517 60.5876L40.6931 60.7551L41.0446 61.0866L41.3959 61.4125L41.5718 61.5729L41.7462 61.732L41.9199 61.8889L42.0936 62.0445L42.2678 62.1979L42.4407 62.3499L42.6127 62.4999L42.7847 62.6484L42.9552 62.7942L43.1257 62.9385L43.2954 63.0808L43.4643 63.2209L43.631 63.359L43.7984 63.495L43.9642 63.6282L44.1293 63.7593L44.2922 63.8883L44.455 64.0146L44.617 64.1387L44.7775 64.2601L44.9359 64.3794L45.0934 64.4952L45.2494 64.6097L45.4047 64.7206L45.557 64.8289L45.7092 64.9343L45.8585 65.037L46.007 65.1376L46.1533 65.2333L46.2981 65.3277L46.4406 65.4186L46.581 65.5061L46.7198 65.5908L46.8564 65.672L46.9914 65.7505L47.1229 65.8256L47.2528 65.8965L47.3797 65.9647L47.5044 66.0295L47.6262 66.0915L47.7457 66.1487L47.8616 66.2025L47.9746 66.2535L48.0134 66.2703L48.0522 66.2856L48.0902 66.3002L48.1283 66.3149L48.1663 66.3281L48.2042 66.3399L48.2422 66.3517L48.2808 66.3628L48.3188 66.3732L48.3567 66.3836L48.3952 66.3918L48.4331 66.4008L48.4716 66.4076L48.5095 66.4151L48.5487 66.4212L48.5864 66.4273L48.6256 66.432L48.6648 66.4367L48.7032 66.4406L48.7423 66.4439L48.7821 66.4464L48.8219 66.4489L48.8617 66.45L48.9021 66.4503L48.9418 66.45L48.9829 66.4496L49.0233 66.4485L49.0644 66.4467L49.1055 66.4449L49.1466 66.4416L49.189 66.4383L49.2314 66.4336L49.2738 66.4289L49.3162 66.4228L49.3593 66.4173L49.3988 66.4113L49.4899 66.3952L49.5787 66.3771L49.6681 66.3568L49.7589 66.3337L49.8503 66.3083L49.9431 66.2801L50.0379 66.2496L50.1334 66.217L50.2294 66.1809L50.3269 66.1432L50.4249 66.1034L50.5243 66.0607L50.6244 66.0158L50.7251 65.9688L50.8264 65.9196L50.9291 65.8675L51.0324 65.8147L51.1364 65.7582L51.241 65.7011L51.3455 65.6411L51.4521 65.5789L51.558 65.5161L51.6652 65.4503L51.7731 65.3838L51.8809 65.3144L51.9894 65.2443L52.0978 65.1728L52.2076 65.0999L52.3174 65.0255L52.4278 64.9489L52.5375 64.8717L52.6479 64.7937L52.872 64.6326L53.0953 64.468L53.3206 64.2998L53.5466 64.1294L53.7732 63.9555L54.0011 63.7801L54.229 63.6032L54.6875 63.2466L54.9175 63.0689L55.1482 62.8905L55.3797 62.7142L55.6119 62.54L55.8442 62.3672L56.0752 62.1988L56.1931 62.1141L56.3097 62.0308L56.4264 61.949L56.5437 61.8679L56.6611 61.7882L56.7786 61.7099L56.8968 61.6323L57.0143 61.5554L57.1326 61.4807L57.2509 61.4073L57.3699 61.3346L57.489 61.2648L57.6082 61.1949L57.7281 61.1286L57.8481 61.0623L57.9695 60.9987L58.0896 60.9366L58.2112 60.8773L58.3328 60.8194L58.4552 60.7636L58.5792 60.7106L58.7024 60.6597L58.8265 60.6109L58.952 60.5649L59.0776 60.5218L59.2041 60.4807L59.3313 60.4431L59.4593 60.4091L59.5889 60.3778L59.7178 60.3501L59.8448 60.3261L59.9139 60.3145L59.9796 60.3052L60.0453 60.2959L60.1117 60.2873L60.1782 60.2801L60.2447 60.2743L60.3112 60.27L60.3785 60.2663L60.4451 60.2633L60.5124 60.2611L60.5797 60.2602L60.6471 60.2608L60.7146 60.2628L60.7828 60.2655L60.8503 60.2703L60.9178 60.2751L60.9862 60.282L61.0538 60.2897L61.1214 60.2987L61.1898 60.3085L61.2576 60.3204L61.3254 60.3337L61.3932 60.3485L61.4611 60.3632L61.5283 60.3801L61.5955 60.3984L61.6628 60.4182L61.7302 60.4393L61.7968 60.4612L61.8628 60.4853L61.9295 60.51L61.9956 60.5369L62.061 60.5645L62.1265 60.5936L62.2417 60.6481L62.3584 60.7054L62.4751 60.7655L62.592 60.8299L62.7104 60.8956L62.8289 60.9656L62.9489 61.0384L63.0697 61.1132L63.1913 61.1916L63.313 61.2728L63.4354 61.3561L63.5594 61.4422L63.6842 61.5318L63.8097 61.6235L63.9361 61.7172L64.0632 61.8145L64.1911 61.9139L64.3198 62.0154L64.45 62.1196L64.5796 62.226L64.7107 62.3352L64.8425 62.4465L64.9737 62.5599L65.1071 62.6754L65.2406 62.7937L65.3741 62.9134L65.5077 63.0359L65.6427 63.1598L65.7779 63.2866L65.9131 63.4147L66.0491 63.545L66.1851 63.6767L66.3212 63.8112L66.4573 63.9471L66.5935 64.0844L66.7298 64.2232L66.8668 64.364L67.0038 64.5063L67.1402 64.6507L67.2767 64.7966L67.4125 64.9432L67.549 65.0918L67.6842 65.242L67.8201 65.3928L67.9553 65.5458L68.0899 65.6996L68.2245 65.8547L68.3592 66.0113L68.4917 66.1686L68.6243 66.3274L68.757 66.4876L68.8882 66.6479L69.0195 66.8096L69.1501 66.972L69.2785 67.1353L69.4071 67.2999L69.5349 67.4653L69.6613 67.6307L69.7871 67.7969L69.9114 67.9646L70.0351 68.1316L70.1573 68.3L70.2789 68.4693L70.3976 68.6386L70.5171 68.8086L70.6337 68.9788L70.7497 69.1496L70.8642 69.3206L70.9773 69.4916L71.0884 69.6634L71.198 69.8353L71.3061 70.0072L71.4122 70.1785L71.5168 70.3513L71.62 70.5227L71.7211 70.695L71.8194 70.8674L71.9169 71.0391L72.0124 71.2116L72.1056 71.3834L72.1968 71.5547L72.2858 71.7268L72.372 71.8975L72.4567 72.0684L72.5386 72.2393L72.6191 72.4104L72.6967 72.5801L72.7715 72.75L72.8441 72.9192L72.9139 73.0872L72.9815 73.2559L73.0456 73.4241L73.1075 73.5917L73.1673 73.7587L73.2235 73.9251L73.2762 74.091L73.3267 74.2562L73.3744 74.4216L73.4178 74.5858L73.459 74.7493L73.4967 74.9123L73.5308 75.0747L73.5606 75.2345L73.5753 75.3183L73.5891 75.3986L73.6008 75.4797L73.6118 75.5601L73.6221 75.6399L73.6317 75.7203L73.6398 75.7995L73.6473 75.8793L73.6593 76.0392L73.6632 76.1185L73.6663 76.1971L73.6688 76.2765L73.6698 76.356L73.6694 76.434L73.6683 76.5129L73.6665 76.591L73.6632 76.6692L73.6578 76.7468L73.6517 76.8252L73.6449 76.9028L73.6367 76.9805L73.6159 77.1347L73.6034 77.2112L73.5895 77.2878L73.5748 77.3637L73.5587 77.4396L73.5405 77.5149L73.5208 77.5903L73.4997 77.6658L73.4779 77.7405L73.454 77.8147L73.4293 77.8882L73.4025 77.961L73.3742 78.034L73.3439 78.1063L73.3127 78.1779L73.2795 78.2489L73.2448 78.32L73.2086 78.3897L73.1703 78.4589L73.1306 78.5266L73.0894 78.5944L73.0468 78.6609L73.0028 78.7274L72.9565 78.7919L72.9089 78.8565L72.8597 78.9197L72.8105 78.9801L72.7619 79.0368L72.7154 79.0914L72.666 79.1461L72.5658 79.2542L72.5115 79.3098L72.4062 79.4145L72.2953 79.5209L72.1794 79.6268L72.0607 79.7328L71.937 79.8384L71.8083 79.9434L71.6768 80.0486L71.5417 80.1532L71.4009 80.258L71.2581 80.3623L71.1102 80.4675L70.9588 80.5721L70.8032 80.6769L70.644 80.7812L70.4812 80.8863L70.315 80.9909L70.1444 81.0957L69.9703 81.1999L69.7934 81.3042L69.6122 81.4087L69.4274 81.5127L69.2398 81.6168L69.0487 81.7204L68.8533 81.8241L68.6557 81.9272L68.4546 82.0298L68.25 82.1332L68.0432 82.236L67.8321 82.3376L67.6189 82.44L67.4029 82.5411L67.1833 82.6417L66.9616 82.743L66.7362 82.8424L66.5088 82.9426L66.2785 83.0414L66.0453 83.139L65.81 83.2374L65.5718 83.3346L65.3322 83.4303L65.0898 83.5262L64.8444 83.6208L64.5969 83.7147L64.3473 83.8081L64.0962 83.9001L63.843 83.9915L63.5868 84.0816L63.33 84.171L63.0703 84.2591L62.8098 84.3466L62.5465 84.4327L62.2817 84.5175L62.0154 84.601L61.7478 84.6845L61.4786 84.7652L61.2073 84.8453L60.9359 84.924L60.6616 85.0014L60.3874 85.0774L60.1109 85.1514L59.8344 85.2239L59.5557 85.2959L59.2769 85.365L58.9967 85.4341L58.7158 85.4998L58.434 85.5647L58.1508 85.6284L57.8676 85.6891L57.5836 85.7492L57.2988 85.8072L57.0139 85.8624L56.7283 85.9169L56.442 85.9693L56.1555 86.0189L55.869 86.067L55.5824 86.1123L55.2944 86.1563L55.0077 86.1973L54.7202 86.2377L54.4334 86.2745L54.1457 86.3092L53.8587 86.3418L53.5724 86.3722L53.2846 86.3998L52.9988 86.4252L52.7129 86.4478L52.4277 86.4682L52.1423 86.4858L51.8577 86.5012L51.5729 86.5138L51.2901 86.5227L51.0074 86.5303L50.7259 86.5349L50.445 86.5359L50.1641 86.5342L49.8852 86.5302L49.6069 86.5226L49.3313 86.5121L49.1921 86.5054L49.0535 86.4981L48.9164 86.4907L48.7792 86.4818L48.6413 86.4723L48.5055 86.462L48.369 86.451L48.2331 86.4392L48.0973 86.4261L47.9614 86.4129L47.8268 86.3983L47.6923 86.3837L47.5584 86.3669L47.4246 86.3501L47.2907 86.3319L47.1575 86.3143L47.0249 86.2946L46.8923 86.2735L46.7605 86.2531L46.6292 86.2305L46.498 86.2079L46.3675 86.1832L46.2369 86.1584L46.107 86.1329L45.9785 86.106L45.8492 86.0783L45.7207 86.0499L45.5928 86.0208L45.4656 85.9895L45.3383 85.9583L45.2125 85.9255L45.0866 85.8927L44.9607 85.8585L44.8362 85.8229L44.7123 85.7865L44.5878 85.7494L44.4646 85.7109L44.342 85.6716L44.2202 85.6315L44.099 85.5893L43.9778 85.5471L43.8573 85.5042L43.7382 85.4598L43.619 85.414L43.5006 85.3674L43.3827 85.3187L43.2656 85.2706L43.1491 85.2204L43.0334 85.1695L42.9175 85.1171L42.8038 85.0639L42.69 85.0093L42.577 84.954L42.4653 84.8972L42.342 84.8338L42.2187 84.769L42.0947 84.7035L41.9705 84.6352L41.8464 84.5669L41.7208 84.4972L41.5959 84.4253L41.4688 84.3529L41.3431 84.279L41.2159 84.2037L41.0887 84.127L40.9607 84.0496L40.8327 83.9708L40.704 83.8899L40.5752 83.809L40.4457 83.726L40.3154 83.6424L40.1843 83.5566L39.9229 83.3829L39.6592 83.2044L39.3939 83.0217L39.1277 82.834L38.8593 82.6415L38.5893 82.4448L38.3178 82.2438L38.0455 82.038L37.7708 81.8287L37.4961 81.6152L37.2191 81.3968L36.9419 81.1741L36.6625 80.948L36.3823 80.7184L36.102 80.4845L35.8194 80.2472L35.536 80.0049L35.2524 79.7598L34.9681 79.5112L34.6815 79.2592L34.3955 79.0036L34.1087 78.7444L33.8204 78.4825L33.532 78.2164L33.2428 77.9481L32.9534 77.6756L32.6633 77.401L32.3738 77.1228L32.0828 76.8419L31.7924 76.5587L31.5012 76.2721L31.2099 75.9827L30.9179 75.6911L30.6272 75.3967L30.3356 75.1001L30.0441 74.8007L29.7531 74.4992L29.4614 74.1956L29.171 73.889L28.8806 73.5811L28.59 73.2703L28.3002 72.9588L28.0109 72.6437L27.7217 72.3272L27.4331 72.0099L27.1458 71.6898L26.8585 71.3682L26.5725 71.0452L26.2866 70.7207L26.0019 70.3948L25.718 70.0681L25.4354 69.7385L25.1535 69.4096L24.873 69.0778L24.5932 68.7452L24.3147 68.4126L24.0377 68.0786L23.762 67.743L23.487 67.4067L23.2141 67.0696L22.9426 66.7324L22.6718 66.3945L22.4038 66.055L22.1365 65.7163L21.8713 65.3767L21.6083 65.0363L21.3466 64.6959L21.0871 64.356L20.829 64.0147L20.573 63.674L20.3192 63.3339L20.0674 62.9931L19.8185 62.6521L19.5704 62.3117L19.3257 61.9719L19.0826 61.6321L18.8429 61.2928L18.6047 60.9535L18.3694 60.6154L18.1369 60.2772L17.9065 59.9397L17.6791 59.6034L17.4537 59.2677L17.232 58.9326L17.0131 58.5988L16.7963 58.2656L16.5832 57.9344L16.3729 57.603L16.1655 57.2743L15.961 56.9456L15.7601 56.6188L15.5627 56.2925L15.3682 55.969L15.1773 55.646L14.9894 55.3257L14.805 55.006L14.6242 54.6882L14.4477 54.3717L14.2741 54.0579L14.1041 53.746L13.9385 53.4354L13.7764 53.1267L13.618 52.8215L13.4638 52.5174L13.3133 52.2154L13.1671 51.916L13.0253 51.6178L12.887 51.323L12.7524 51.0301L12.6235 50.7399L12.4976 50.4524L12.3774 50.1688L12.3177 50.0253L12.2608 49.8844L12.204 49.7436L12.1486 49.6041L12.0939 49.4653L12.0414 49.3271L11.9896 49.1896L11.9385 49.0527L11.8889 48.9158L11.8407 48.7803L11.7933 48.6454L11.7466 48.5112L11.702 48.3776L11.6581 48.2447L11.6211 48.1264L11.5834 48.0074L11.5478 47.8876L11.5121 47.7679L11.4779 47.6466L11.4444 47.526L11.4122 47.4039L11.3808 47.2826L11.3493 47.1597L11.3207 47.0368L11.2913 46.9132L11.2634 46.7895L11.2361 46.6651L11.2103 46.5407L11.1844 46.4162L11.1599 46.2902L11.1362 46.1649L11.1138 46.0382L11.0915 45.9114L11.0705 45.7846L11.0502 45.6571L11.0307 45.5302L11.0125 45.4018L10.9944 45.2735L10.9776 45.145L10.9616 45.0159L10.9462 44.886L10.9316 44.7567L10.9183 44.626L10.905 44.4953L10.8925 44.3653L10.8813 44.2338L10.8709 44.103L10.8604 43.9707L10.8521 43.8391L10.8436 43.7046L10.8298 43.4412L10.8187 43.1749L10.8097 42.9077L10.8049 42.6389L10.803 42.37L10.8032 42.1004L10.8068 41.8298L10.8133 41.5577L10.8226 41.2855L10.834 41.0125L10.8489 40.7386L10.8653 40.4646L10.8858 40.1891L10.9085 39.9141L10.934 39.639L10.9617 39.3632L10.9921 39.0858L11.0254 38.8096L11.0608 38.5327L11.0983 38.255L11.1387 37.9785L11.1818 37.7006L11.2264 37.4225L11.2739 37.1458L11.3235 36.8682L11.3759 36.5905L11.4304 36.3135L11.4871 36.037L11.5459 35.7598L11.6069 35.4832L11.6699 35.2071L11.7359 34.931L11.8033 34.6562L11.8728 34.3806L11.9444 34.107L12.0182 33.8327L12.0935 33.5597L12.1715 33.2865L12.2511 33.0148L12.3321 32.7443L12.4159 32.4738L12.5012 32.2046L12.5886 31.936L12.6775 31.6688L12.7686 31.4022L12.8611 31.1369L12.9551 30.873L13.0512 30.6097L13.1495 30.3485L13.2485 30.0879L13.3497 29.828L13.4524 29.5708L13.5565 29.3135L13.6628 29.0583L13.7699 28.8052L13.8791 28.5527L13.9898 28.3029L14.102 28.0545L14.2149 27.8068L14.3294 27.5619L14.446 27.319L14.564 27.0775L14.6836 26.8373L14.8032 26.5999L14.925 26.3632L15.0475 26.1299L15.1723 25.8987L15.2979 25.6696L15.4249 25.4419L15.552 25.217L15.6813 24.9941L15.8121 24.774L15.9436 24.556L16.076 24.3401L16.2098 24.1269L16.3452 23.9166L16.4806 23.709L16.6175 23.5028L16.7552 23.3002L16.8944 23.1003L17.0345 22.9039L17.1753 22.7096L17.3176 22.5181L17.46 22.3294L17.6039 22.1435L17.7487 21.9611L17.8949 21.7814L18.0412 21.6046L18.1891 21.432L18.337 21.2623L18.4865 21.0953L18.6368 20.9318L18.7879 20.7718L18.9398 20.6154L19.0925 20.4624L19.2454 20.3123L19.3991 20.1671L19.4784 20.0948L19.5563 20.0239L19.6336 19.9538L19.7124 19.885L19.7904 19.817L19.8692 19.7496L19.948 19.6837L20.0276 19.6184L20.1064 19.5539L20.1861 19.4915L20.2657 19.4291L20.3454 19.3681L20.4258 19.3077L20.5063 19.2488L20.5867 19.1899L20.6679 19.1331L20.7492 19.0763L20.8305 19.0223L20.9125 18.9676L20.9939 18.915L21.076 18.8631L21.1588 18.8119L21.2402 18.7622L21.3238 18.7131L21.4068 18.6661L21.4925 18.6176L21.5595 18.582L21.6308 18.5462L21.7028 18.5125L21.7749 18.4802L21.8484 18.4507L21.9213 18.4219L21.9957 18.396L22.0701 18.3714L22.1453 18.3489L22.2206 18.3278L22.2959 18.3082L22.3712 18.2914L22.4481 18.2759L22.525 18.2618L22.6012 18.25L22.6775 18.2395L22.7546 18.2311L22.8317 18.2242L22.9088 18.2186L22.986 18.2145L23.0632 18.2118L23.1398 18.2113L23.2171 18.2114ZM23.1032 20.2121L23.0656 20.213L23.0295 20.2153L22.9934 20.2176L22.958 20.2206L22.9241 20.225L22.8902 20.2293L22.8577 20.2336L22.826 20.2399L22.7943 20.2463L22.7633 20.2534L22.733 20.2611L22.7021 20.2696L22.6733 20.2786L22.6445 20.2877L22.6157 20.2982L22.5884 20.3086L22.5603 20.3198L22.533 20.3317L22.5065 20.3442L22.48 20.3581L22.4506 20.3736L22.3907 20.4075L22.3273 20.4437L22.2639 20.4812L22.2005 20.5188L22.1365 20.5586L22.0717 20.599L22.0085 20.6409L21.9438 20.6827L21.8792 20.7275L21.8147 20.7722L21.7494 20.8177L21.6842 20.8645L21.6197 20.9121L21.5545 20.9618L21.4894 21.0115L21.4229 21.0627L21.3578 21.1153L21.2921 21.1686L21.2264 21.2219L21.16 21.2773L21.0943 21.3335L21.0287 21.391L20.9624 21.4493L20.8955 21.5083L20.8299 21.5687L20.7651 21.6283L20.6307 21.7556L20.4985 21.885L20.3658 22.0179L20.2324 22.1543L20.1005 22.295L19.9681 22.4393L19.8351 22.5871L19.7035 22.7377L19.5715 22.8932L19.4401 23.0509L19.309 23.2128L19.1779 23.3776L19.0476 23.5459L18.9174 23.717L18.7881 23.8916L18.6595 24.0698L18.5311 24.2507L18.4027 24.4345L18.2758 24.6211L18.149 24.8105L18.0238 25.0027L17.8986 25.1977L17.7749 25.3955L17.6513 25.5962L17.5292 25.7996L17.4072 26.0044L17.2867 26.2134L17.1669 26.4231L17.048 26.6363L16.9312 26.8515L16.8138 27.0689L16.6986 27.2883L16.5842 27.5098L16.4705 27.7334L16.3583 27.9598L16.2476 28.1875L16.1377 28.4174L16.0293 28.6485L15.9223 28.8825L15.8161 29.1171L15.712 29.3538L15.6088 29.5926L15.507 29.8327L15.4066 30.0742L15.3078 30.317L15.2103 30.5612L15.1151 30.8074L15.0206 31.0543L14.9276 31.3025L14.8367 31.5528L14.7473 31.803L14.6593 32.0546L14.5728 32.3075L14.4885 32.561L14.4056 32.8159L14.3248 33.0714L14.2462 33.3276L14.1683 33.5844L14.0933 33.8425L14.0191 34.1012L13.9476 34.3599L13.8776 34.6185L13.8098 34.8791L13.7441 35.1389L13.6798 35.4001L13.6184 35.6611L13.5584 35.9221L13.5005 36.1837L13.4447 36.4445L13.3919 36.7066L13.3397 36.9679L13.291 37.2298L13.2438 37.4916L13.1994 37.7519L13.1564 38.0136L13.117 38.2743L13.0789 38.5351L13.043 38.795L13.0099 39.0548L12.9789 39.3138L12.9508 39.5726L12.9247 39.8307L12.9008 40.0879L12.8803 40.3443L12.8613 40.6007L12.8451 40.8554L12.8317 41.1087L12.8204 41.3626L12.8126 41.6141L12.8062 41.8656L12.8032 42.1149L12.8032 42.364L12.8044 42.6116L12.8099 42.8576L12.8168 43.1022L12.8272 43.3458L12.8404 43.5894L12.8477 43.709L12.865 43.9481L12.8743 44.0669L12.8844 44.1864L12.9073 44.4224L12.9195 44.5397L12.9466 44.7741L12.9765 45.0056L12.9921 45.1206L13.0091 45.2355L13.0446 45.4639L13.0637 45.5766L13.0835 45.69L13.1033 45.8019L13.1245 45.9139L13.1683 46.1362L13.1915 46.2459L13.2155 46.3562L13.2409 46.4651L13.2655 46.5733L13.2916 46.6815L13.319 46.7895L13.3465 46.8962L13.3746 47.0021L13.4041 47.108L13.4343 47.2131L13.4638 47.3175L13.4954 47.4212L13.5284 47.5247L13.5606 47.6276L13.6005 47.7472L13.6404 47.8683L13.6832 47.9906L13.7254 48.1136L13.8153 48.3623L13.8625 48.4886L13.9104 48.6157L13.9591 48.7434L14.0099 48.8718L14.0607 49.0015L14.1137 49.1319L14.1674 49.2629L14.2219 49.3947L14.3359 49.6629L14.4535 49.933L14.5747 50.2066L14.7017 50.4827L14.8324 50.7622L14.9681 51.0451L15.1068 51.3306L15.2505 51.6181L15.3978 51.9089L15.5495 52.2024L15.7055 52.4986L15.8651 52.7967L16.0283 53.0968L16.1952 53.4002L16.3664 53.7049L16.5411 54.0116L16.7188 54.321L16.9016 54.6323L17.0865 54.9456L17.2749 55.2595L17.4678 55.576L17.662 55.8939L17.8613 56.2136L18.0635 56.5347L18.2678 56.8564L18.4765 57.1807L18.6873 57.5057L18.9017 57.8312L19.1182 58.1587L19.3384 58.4868L19.5606 58.8155L19.7858 59.1455L20.0138 59.4768L20.2447 59.8079L20.477 60.1405L20.7136 60.4728L20.9509 60.8058L21.1911 61.1401L21.4334 61.4736L21.6792 61.8076L21.9258 62.1423L22.1752 62.4769L22.426 62.8115L22.6797 63.1459L22.9348 63.4802L23.1913 63.8145L23.4506 64.1487L23.7106 64.4821L23.9728 64.8161L24.2371 65.1494L24.5027 65.4811L24.7697 65.8128L25.0382 66.1444L25.3081 66.4746L25.5793 66.8047L25.852 67.1333L26.126 67.4604L26.4007 67.7868L26.6768 68.1131L26.9535 68.4373L27.2317 68.7599L27.5112 69.0826L27.7907 69.4023L28.0715 69.7221L28.3523 70.039L28.6352 70.355L28.9173 70.669L29.2008 70.9815L29.4849 71.2919L29.769 71.6008L30.053 71.9069L30.3384 72.2116L30.6237 72.5148L30.9089 72.8151L31.1941 73.1127L31.4799 73.408L31.7656 73.702L32.0513 73.9931L32.3361 74.2807L32.6216 74.5662L32.9063 74.8495L33.1916 75.1293L33.4762 75.407L33.7599 75.6812L34.0435 75.9525L34.3264 76.2218L34.6091 76.4868L34.8903 76.749L35.1714 77.007L35.4517 77.2629L35.7312 77.5152L36.0092 77.7634L36.287 78.0087L36.5633 78.2499L36.8388 78.4875L37.1128 78.721L37.3859 78.9509L37.6575 79.1766L37.9268 79.3989L38.196 79.617L38.463 79.8302L38.7291 80.0398L38.9929 80.2446L39.2552 80.4452L39.5152 80.6424L39.7737 80.8339L40.0306 81.0213L40.2852 81.2038L40.5376 81.3814L40.7877 81.5542L41.0369 81.722L41.2831 81.8857L41.404 81.9648L41.5256 82.0432L41.6458 82.1202L41.7666 82.1965L41.8859 82.27L42.0052 82.3435L42.1231 82.4156L42.2402 82.4857L42.3573 82.5557L42.4728 82.623L42.5891 82.6896L42.7032 82.7541L42.8172 82.8186L42.9305 82.881L43.0424 82.942L43.1542 83.0017L43.2652 83.0592L43.3741 83.1162L43.4685 83.1638L43.5628 83.21L43.6571 83.2548L43.7529 83.2995L43.8493 83.3436L43.9471 83.3861L44.0449 83.4286L44.144 83.4696L44.2439 83.5099L44.3437 83.5502L44.4449 83.589L44.5475 83.6264L44.6494 83.663L44.7527 83.6996L44.8566 83.7355L44.962 83.7699L45.068 83.8035L45.174 83.8371L45.2814 83.8693L45.3895 83.9007L45.4976 83.9321L45.607 83.9621L45.7164 83.9906L45.8273 84.0191L45.9388 84.0468L46.0503 84.0731L46.1632 84.0993L46.276 84.1241L46.3903 84.1489L46.5045 84.1722L46.6194 84.1948L46.7357 84.2174L46.8513 84.2392L46.9683 84.2596L47.0859 84.2792L47.2042 84.2981L47.3219 84.3164L47.4416 84.3338L47.5613 84.3512L47.6816 84.3665L47.802 84.3817L47.923 84.3963L48.0455 84.4107L48.1671 84.4231L48.2902 84.4354L48.414 84.4469L48.5371 84.4578L48.6615 84.4687L48.7867 84.4773L48.9118 84.486L49.0369 84.4946L49.1634 84.5018L49.2891 84.5083L49.4148 84.5134L49.6719 84.5234L49.9275 84.5305L50.1858 84.5347L50.4455 84.536L50.7058 84.5352L50.9681 84.5307L51.2311 84.524L51.4947 84.5152L51.761 84.5034L52.0266 84.4896L52.2942 84.4721L52.5625 84.4538L52.8313 84.432L53.1008 84.408L53.371 84.3819L53.6418 84.3536L53.9125 84.3225L54.1846 84.2899L54.4559 84.2552L54.7286 84.2176L55.0012 84.1786L55.2737 84.1367L55.5461 84.0934L55.8185 84.0473L56.0908 83.9998L56.3638 83.9501L56.636 83.8984L56.9082 83.8452L57.1796 83.7899L57.4509 83.7332L57.7208 83.6751L57.9913 83.6149L58.261 83.5526L58.5293 83.4889L58.7976 83.4239L59.065 83.3567L59.331 83.2881L59.5963 83.2189L59.8608 83.1476L60.1239 83.075L60.3855 83.001L60.647 82.9255L60.9056 82.8488L61.1643 82.7707L61.4207 82.6919L61.6757 82.6118L61.9293 82.5303L62.1814 82.4475L62.4313 82.3641L62.6798 82.2793L62.9261 82.1939L63.1703 82.1079L63.413 82.0205L63.6536 81.9325L63.8913 81.8432L64.1283 81.7533L64.3617 81.6628L64.5937 81.5723L64.8221 81.4799L65.049 81.3876L65.2732 81.2953L65.4951 81.2011L65.7135 81.1077L65.9291 81.013L66.1425 80.9177L66.3524 80.8232L66.5594 80.7275L66.7635 80.6319L66.9648 80.5364L67.1633 80.4396L67.3575 80.3431L67.5482 80.2473L67.7367 80.151L67.921 80.0549L68.1017 79.9582L68.2789 79.8623L68.4519 79.7667L68.6213 79.6705L68.7872 79.5752L68.9488 79.48L69.1069 79.3857L69.26 79.291L69.4096 79.1971L69.5543 79.1041L69.6954 79.012L69.8309 78.9201L69.9628 78.8291L70.0899 78.7391L70.2119 78.6499L70.3298 78.5624L70.442 78.4751L70.55 78.3894L70.6524 78.3054L70.7498 78.2223L70.841 78.1417L70.9272 78.0619L71.0085 77.9845L71.0855 77.9073L71.1185 77.8732L71.1522 77.8369L71.1851 77.8014L71.216 77.7667L71.2461 77.7327L71.2728 77.701L71.2954 77.6738L71.3165 77.6466L71.3362 77.6194L71.356 77.5923L71.3749 77.5631L71.3925 77.5353L71.4108 77.5068L71.4276 77.477L71.4444 77.4472L71.4597 77.416L71.4758 77.3855L71.4904 77.3536L71.5043 77.321L71.5182 77.2885L71.5313 77.2538L71.5438 77.2199L71.5561 77.1846L71.5671 77.1494L71.578 77.1127L71.5882 77.0753L71.5984 77.0365L71.6071 76.9978L71.6165 76.9584L71.6245 76.9176L71.6317 76.8761L71.6382 76.8339L71.6447 76.7918L71.6504 76.7475L71.6547 76.7033L71.659 76.6577L71.6625 76.6114L71.6653 76.5645L71.6674 76.5168L71.6694 76.4678L71.67 76.4188L71.6692 76.3684L71.669 76.3174L71.6681 76.2656L71.6651 76.2132L71.6627 76.1601L71.6589 76.1056L71.6551 76.0511L71.6491 75.996L71.6439 75.9402L71.6371 75.883L71.6296 75.8251L71.6215 75.768L71.6126 75.7088L71.6029 75.6489L71.5933 75.5918L71.5696 75.4666L71.5431 75.3428L71.5143 75.2156L71.4819 75.0865L71.4467 74.956L71.4085 74.8229L71.3681 74.6877L71.3235 74.5513L71.2773 74.4121L71.2269 74.2717L71.1749 74.1299L71.1194 73.9862L71.0617 73.8418L71.0005 73.6955L70.9377 73.5478L70.8721 73.3988L70.8036 73.2486L70.733 73.0977L70.6594 72.9455L70.5838 72.7927L70.506 72.6393L70.426 72.4839L70.3431 72.3286L70.2581 72.1726L70.1717 72.0154L70.0824 71.8582L69.9924 71.7004L69.8988 71.542L69.8038 71.3837L69.7074 71.224L69.6088 71.0651L69.5081 70.9056L69.406 70.7462L69.3032 70.5861L69.1982 70.4268L69.0911 70.2669L68.9826 70.107L68.8727 69.9472L68.7614 69.7889L68.6486 69.6293L68.5351 69.4703L68.4196 69.3122L68.304 69.1541L68.1864 68.9968L68.0687 68.8395L67.9489 68.6829L67.8285 68.5272L67.7066 68.3714L67.5848 68.2171L67.4616 68.0629L67.3377 67.9108L67.2138 67.7588L67.0878 67.6075L66.9626 67.4569L66.8367 67.3085L66.7094 67.1601L66.5821 67.0131L66.4549 66.8676L66.3263 66.7235L66.1984 66.5801L66.0699 66.4389L65.9421 66.2984L65.813 66.1593L65.6846 66.0223L65.5555 65.8861L65.4272 65.7519L65.2983 65.6199L65.1701 65.4886L65.042 65.3602L64.9146 65.2324L64.7866 65.1067L64.6601 64.9839L64.5336 64.8624L64.4072 64.7424L64.2815 64.6259L64.1566 64.5101L64.0326 64.3977L63.9092 64.2861L63.7867 64.1779L63.665 64.0719L63.5447 63.9686L63.4253 63.8675L63.3066 63.7684L63.1894 63.6721L63.073 63.5793L62.9581 63.4878L62.8448 63.4006L62.7329 63.3147L62.6225 63.233L62.5136 63.1526L62.4063 63.0765L62.3012 63.0038L62.1983 62.9331L62.0962 62.8659L61.9977 62.8021L61.9008 62.7411L61.8054 62.6843L61.7136 62.6295L61.6241 62.5795L61.5375 62.5322L61.4539 62.4891L61.3732 62.4486L61.2954 62.4123L61.2653 62.3995L61.2351 62.3866L61.2042 62.3745L61.174 62.363L61.1446 62.3523L61.1145 62.3423L61.0837 62.333L61.0537 62.3244L61.0236 62.3158L60.9929 62.3079L60.9629 62.3007L60.9322 62.2942L60.9008 62.2885L60.8701 62.2835L60.8395 62.2785L60.8074 62.2749L60.7761 62.2706L60.7448 62.2678L60.7121 62.2649L60.6794 62.2635L60.6467 62.2622L60.614 62.2608L60.58 62.2608L60.5474 62.2609L60.5126 62.2617L60.4786 62.2632L60.4439 62.2654L60.4086 62.2684L60.3732 62.2714L60.3371 62.2751L60.3004 62.2796L60.2644 62.2847L60.2269 62.2899L60.1931 62.2957L60.1127 62.3106L60.0351 62.3268L59.9556 62.3466L59.874 62.3687L59.7918 62.3929L59.7082 62.42L59.6226 62.4494L59.5356 62.4816L59.4473 62.5153L59.3569 62.5526L59.2666 62.5914L59.1743 62.6338L59.0813 62.6784L58.987 62.7244L58.8913 62.7734L58.795 62.8244L58.6967 62.8778L58.5991 62.9332L58.4994 62.9908L58.3984 63.0499L58.2981 63.1111L58.1958 63.1745L58.0929 63.2401L57.99 63.3071L57.8857 63.3756L57.78 63.4456L57.6752 63.5176L57.5689 63.5912L57.462 63.6654L57.3544 63.7419L57.2475 63.819L57.029 63.9784L56.8099 64.1414L56.5888 64.308L56.365 64.479L56.1398 64.6514L55.9133 64.8268L55.4554 65.1827L55.2241 65.3619L54.992 65.5417L54.7585 65.7202L54.5228 65.8981L54.2864 66.0754L54.0485 66.2498L53.8105 66.4214L53.6891 66.507L53.5689 66.5911L53.4481 66.6745L53.3265 66.7572L53.2049 66.8385L53.0826 66.9192L52.9602 66.9984L52.8378 67.0762L52.7146 67.1533L52.5914 67.229L52.4674 67.3026L52.3427 67.3756L52.2179 67.4457L52.0923 67.5151L51.966 67.5824L51.8397 67.6483L51.7126 67.7121L51.5854 67.7745L51.4567 67.8341L51.328 67.8923L51.1978 67.9478L51.0682 68.001L50.9371 68.0516L50.8053 68.1L50.6727 68.1463L50.5392 68.1891L50.4057 68.229L50.2714 68.2669L50.1355 68.3006L49.9989 68.3322L49.8621 68.3595L49.7274 68.3832L49.6554 68.3949L49.5854 68.4044L49.5155 68.4139L49.4455 68.4219L49.3762 68.4292L49.3055 68.4352L49.2354 68.4404L49.1653 68.4442L49.0945 68.4474L49.0236 68.4491L48.9527 68.4508L48.8817 68.4497L48.8108 68.4486L48.7391 68.4468L48.668 68.4428L48.5962 68.4382L48.5251 68.4328L48.4533 68.4253L48.3821 68.4171L48.3102 68.4082L48.2389 68.3972L48.1669 68.3855L48.0948 68.3723L48.0235 68.3584L47.9527 68.3424L47.8813 68.3257L47.8098 68.3076L47.7383 68.288L47.6674 68.2677L47.5965 68.246L47.5262 68.2222L47.4553 68.1976L47.385 68.1723L47.3146 68.1442L47.2442 68.1161L47.1752 68.0865L47.032 68.0226L46.8867 67.9552L46.7412 67.885L46.5942 67.8106L46.4464 67.7341L46.2964 67.6541L46.1463 67.5713L45.9946 67.4843L45.8408 67.3953L45.6868 67.3035L45.5314 67.2089L45.3744 67.1101L45.216 67.0099L45.0567 66.9062L44.8967 66.8005L44.7351 66.6919L44.5727 66.5799L44.4082 66.4658L44.2436 66.3489L44.0767 66.2299L43.9098 66.1081L43.7421 65.9843L43.5729 65.8576L43.4029 65.7288L43.2329 65.5973L43.0606 65.4636L42.8876 65.3279L42.7145 65.1894L42.5399 65.0495L42.3652 64.9068L42.1898 64.7633L42.0136 64.6164L41.8366 64.4674L41.6589 64.3177L41.4811 64.1652L41.3026 64.012L41.1232 63.8552L40.9446 63.6978L40.7637 63.5383L40.5842 63.3773L40.404 63.2142L40.2223 63.0498L40.0419 62.8839L39.8601 62.7166L39.6789 62.5472L39.497 62.3771L39.3158 62.2049L39.1345 62.0326L38.9525 61.8583L38.7711 61.6818L38.5897 61.5053L38.4083 61.3273L38.2268 61.148L38.0461 60.9679L37.8652 60.7864L37.6851 60.6042L37.5049 60.4205L37.3254 60.2376L37.1459 60.0518L36.9678 59.8659L36.7889 59.6793L36.6107 59.492L36.4347 59.3039L36.2579 59.1152L36.0818 58.9257L35.9064 58.7368L35.7324 58.5465L35.559 58.3555L35.3857 58.1644L35.2138 57.9719L35.0433 57.7807L34.8727 57.5881L34.7036 57.3954L34.5359 57.2027L34.3697 57.0099L34.2034 56.8171L34.0392 56.6236L33.8757 56.4306L33.7137 56.2377L33.5531 56.0446L33.3939 55.8515L33.2354 55.6591L33.0791 55.4659L32.9242 55.274L32.7699 55.0814L32.6179 54.8894L32.4679 54.6981L32.3187 54.5073L32.1717 54.3158L32.026 54.1257L31.8825 53.9362L31.7405 53.7466L31.5999 53.5583L31.4621 53.37L31.3258 53.1829L31.1916 52.9965L31.0596 52.8108L30.929 52.6249L30.8006 52.4411L30.675 52.2572L30.5516 52.0753L30.4297 51.8933L30.3099 51.7134L30.1929 51.5333L30.0782 51.3553L29.9663 51.1771L29.8558 51.0003L29.7483 50.8262L29.6428 50.6513L29.541 50.4784L29.4406 50.3068L29.3431 50.1366L29.2485 49.9676L29.1561 49.7992L29.0672 49.6328L28.9805 49.467L28.8974 49.3032L28.8164 49.14L28.7384 48.9795L28.6639 48.8196L28.5916 48.6603L28.5229 48.5029L28.4564 48.3476L28.3942 48.1935L28.3348 48.0393L28.2783 47.8878L28.2254 47.7368L28.1761 47.5878L28.1532 47.5143L28.1311 47.4401L28.111 47.3664L28.0917 47.2921L28.0745 47.2183L28.058 47.1438L28.043 47.0692L28.0286 46.9954L28.0171 46.9214L28.0056 46.8473L27.9962 46.7725L27.9882 46.6991L27.981 46.6249L27.9744 46.5514L27.9707 46.4777L27.967 46.4041L27.9647 46.3304L27.9646 46.2573L27.9645 46.1842L27.9665 46.1117L27.9692 46.0385L27.974 45.9659L27.9789 45.8933L27.9852 45.822L27.9929 45.7493L28.0013 45.6787L28.0111 45.6066L28.0224 45.5358L28.0337 45.465L28.0471 45.3949L28.0606 45.3247L28.0754 45.2545L28.0917 45.1857L28.1087 45.1161L28.1264 45.0472L28.1456 44.9782L28.1648 44.9107L28.1861 44.8423L28.2074 44.7753L28.2308 44.7048L28.2771 44.5743L28.3276 44.4422L28.381 44.3113L28.438 44.1811L28.4971 44.0529L28.5599 43.9252L28.624 43.7989L28.6911 43.6738L28.7617 43.5493L28.8338 43.4262L28.9074 43.3045L28.9845 43.1832L29.0623 43.0627L29.143 42.9434L29.2259 42.8248L29.3095 42.7069L29.396 42.5902L29.4832 42.4742L29.5718 42.3582L29.6633 42.2434L29.7548 42.1287L29.8485 42.0159L29.9428 41.9025L30.0394 41.7896L30.1359 41.6782L30.2339 41.5667L30.334 41.4558L30.4342 41.3449L30.535 41.2347L30.6373 41.1259L30.7397 41.017L30.8441 40.9074L31.0516 40.6924L31.262 40.4773L31.4746 40.2642L31.6873 40.0526L31.9006 39.8416L32.114 39.632L32.5374 39.2166L32.7474 39.0107L32.9552 38.8057L33.1589 38.6022L33.3597 38.3989L33.5571 38.1978L33.7509 37.9962L33.8443 37.897L33.9369 37.7971L34.0282 37.6987L34.1188 37.5996L34.2072 37.5013L34.2943 37.403L34.3792 37.3056L34.4627 37.2082L34.5442 37.1117L34.6242 37.0152L34.7021 36.9195L34.7778 36.8231L34.8508 36.7284L34.9223 36.6337L34.9918 36.5397L35.0591 36.4466L35.1236 36.3537L35.186 36.2615L35.2449 36.1702L35.3031 36.0796L35.3571 35.9892L35.4096 35.9003L35.4594 35.8115L35.5063 35.7243L35.5504 35.6372L35.5918 35.5516L35.6296 35.4669L35.666 35.3837L35.6989 35.2999L35.7297 35.2183L35.7583 35.1347L35.7699 35.0973L35.7822 35.0578L35.7937 35.0189L35.8046 34.9794L35.8147 34.9406L35.8241 34.9012L35.8329 34.8625L35.8409 34.8245L35.8483 34.7873L35.8549 34.7494L35.8615 34.7115L35.8667 34.6736L35.872 34.6372L35.8758 34.6008L35.879 34.5638L35.8821 34.5268L35.8845 34.4905L35.8862 34.4549L35.8872 34.4186L35.8875 34.3817L35.8878 34.3462L35.8867 34.3108L35.8849 34.2747L35.8831 34.2386L35.8798 34.2025L35.8759 34.1672L35.8726 34.1312L35.8673 34.0959L35.8619 34.0592L35.8558 34.0233L35.8491 33.9881L35.8415 33.9509L35.8326 33.9151L35.8244 33.8785L35.7996 33.7881L35.7725 33.6927L35.7425 33.5947L35.7089 33.4933L35.6723 33.3877L35.6335 33.2802L35.5917 33.1685L35.5463 33.0548L35.4987 32.9377L35.4482 32.8178L35.3948 32.6953L35.3384 32.57L35.2806 32.4434L35.2184 32.3142L35.1547 32.1821L35.0882 32.0488L35.0194 31.9135L34.9478 31.7754L34.8739 31.6367L34.7979 31.496L34.7197 31.3533L34.6387 31.2092L34.5554 31.0632L34.47 30.9165L34.3824 30.7678L34.2933 30.6177L34.2014 30.4678L34.1081 30.3151L34.0118 30.1625L33.9148 30.0078L33.815 29.8532L33.7137 29.6973L33.6102 29.5408L33.506 29.3836L33.3997 29.2258L33.2913 29.0673L33.1806 28.9083L33.0693 28.7485L32.9565 28.5889L32.8416 28.4286L32.7253 28.2684L32.6075 28.1082L32.4891 27.9474L32.3685 27.7874L32.2472 27.6267L32.1244 27.466L32.0003 27.3054L31.8747 27.1449L31.7485 26.9851L31.6201 26.8262L31.4918 26.6672L31.3628 26.5089L31.2323 26.3508L31.1004 26.1927L30.9686 26.036L30.8347 25.8801L30.7015 25.7249L30.5662 25.5705L30.4309 25.416L30.2949 25.2638L30.1583 25.1123L30.021 24.9615L29.883 24.8129L29.7444 24.665L29.6058 24.5185L29.4665 24.3728L29.328 24.2292L29.1874 24.0864L29.0475 23.9457L28.907 23.8071L28.7673 23.6692L28.6262 23.5342L28.4858 23.3999L28.3448 23.2677L28.2046 23.1377L28.0637 23.0098L27.9229 22.8833L27.7836 22.7596L27.6429 22.6373L27.503 22.5186L27.3632 22.4013L27.2249 22.2867L27.0859 22.1744L26.9485 22.0648L26.8104 21.9573L26.6731 21.8534L26.5366 21.7515L26.4016 21.6525L26.2666 21.5562L26.1332 21.4628L25.9999 21.3722L25.8681 21.2857L25.7371 21.2014L25.6069 21.1205L25.4783 21.0425L25.3518 20.9679L25.2255 20.8961L25.1006 20.8285L24.9781 20.7644L24.857 20.703L24.7375 20.6459L24.6195 20.5915L24.5037 20.5419L24.3873 20.4931L24.3342 20.4728L24.2782 20.4511L24.2236 20.4308L24.1691 20.4119L24.1147 20.3931L24.0616 20.3755L24.0086 20.3594L23.9571 20.3433L23.9055 20.3285L23.8555 20.3151L23.8047 20.3024L23.7554 20.2897L23.7068 20.2791L23.659 20.2691L23.6111 20.2592L23.5648 20.2506L23.5191 20.2427L23.4742 20.2368L23.4301 20.2303L23.3859 20.2251L23.3439 20.2206L23.302 20.2175L23.2608 20.2151L23.2203 20.2133L23.1805 20.2122L23.1415 20.2118L23.1032 20.2121Z" fill="white"/>
<path fill-rule="evenodd" clip-rule="evenodd" d="M82.0972 16.1777L82.2602 16.1817L82.3402 16.1857L82.4212 16.1897L82.5012 16.1957L82.6612 16.2097L82.7412 16.2187L82.8202 16.2277L82.8992 16.2387L82.9782 16.2507L83.0562 16.2627L83.2122 16.2907L83.2892 16.3057L83.4432 16.3397L83.5202 16.3577L83.5962 16.3767L83.6712 16.3967L83.7472 16.4177L83.8212 16.4397L83.8962 16.4617L83.9702 16.4857L84.0442 16.5107L84.1172 16.5357L84.1902 16.5617L84.2632 16.5887L84.3352 16.6167L84.4072 16.6457L84.5492 16.7057L84.6192 16.7367L84.6892 16.7687L84.7582 16.8017L84.8272 16.8357L84.8962 16.8707L84.9642 16.9057L85.0312 16.9417L85.0982 16.9787L85.2302 17.0547L85.2962 17.0947L85.3612 17.1347L85.4252 17.1747L85.4892 17.2167L85.5522 17.2587L85.6152 17.3017L85.7392 17.3897L85.8002 17.4347L85.8612 17.4807L85.9212 17.5277L85.9802 17.5747L86.0392 17.6227L86.1552 17.7207L86.2122 17.7707L86.3242 17.8727L86.3792 17.9247L86.4342 17.9777L86.4882 18.0307L86.5412 18.0847L86.5942 18.1397L86.6462 18.1947L86.7482 18.3067L86.7982 18.3637L86.8962 18.4797L86.9442 18.5387L86.9912 18.5977L87.0382 18.6577L87.0832 18.7187L87.1292 18.7797L87.1732 18.8407L87.2172 18.9037L87.2602 18.9667L87.3022 19.0297L87.3442 19.0937L87.3842 19.1577L87.4242 19.2227L87.4642 19.2887L87.5402 19.4207L87.5772 19.4877L87.6132 19.5557L87.6482 19.6227L87.6832 19.6917L87.7172 19.7607L87.7502 19.8297L87.7822 19.8997L87.8132 19.9697L87.8732 20.1117L87.9022 20.1837L87.9302 20.2557L87.9572 20.3287L87.9832 20.4017L88.0082 20.4747L88.0332 20.5487L88.0572 20.6227L88.0792 20.6967L88.1012 20.7717L88.1222 20.8477L88.1422 20.9227L88.1612 20.9987L88.1792 21.0757L88.2132 21.2297L88.2282 21.3067L88.2562 21.4627L88.2682 21.5407L88.2802 21.6197L88.3002 21.7777L88.3092 21.8577L88.3232 22.0177L88.3282 22.0977L88.3332 22.1787L88.3372 22.2587L88.3392 22.3397L88.3412 22.4217V33.2347L88.3392 33.3167L88.3372 33.3977L88.3332 33.4777L88.3282 33.5587L88.3232 33.6387L88.3162 33.7187L88.3092 33.7987L88.3002 33.8787L88.2902 33.9577L88.2802 34.0367L88.2682 34.1157L88.2562 34.1937L88.2422 34.2717L88.2282 34.3497L88.2132 34.4267L88.1962 34.5037L88.1792 34.5807L88.1612 34.6567L88.1422 34.7327L88.1222 34.8087L88.1012 34.8837L88.0792 34.9587L88.0572 35.0337L88.0332 35.1077L88.0082 35.1817L87.9832 35.2547L87.9572 35.3277L87.9302 35.4007L87.9022 35.4727L87.8732 35.5437L87.8432 35.6157L87.8132 35.6857L87.7822 35.7567L87.7502 35.8267L87.7172 35.8957L87.6832 35.9647L87.6482 36.0327L87.6132 36.1007L87.5772 36.1687L87.5402 36.2357L87.5022 36.3017L87.4642 36.3677L87.4242 36.4337L87.3842 36.4987L87.3442 36.5627L87.3022 36.6267L87.2602 36.6897L87.2172 36.7527L87.1732 36.8147L87.1292 36.8767L87.0832 36.9377L87.0382 36.9987L86.9912 37.0587L86.9442 37.1177L86.8962 37.1767L86.8472 37.2347L86.7982 37.2927L86.7482 37.3497L86.6972 37.4057L86.6462 37.4617L86.5942 37.5167L86.5412 37.5717L86.4882 37.6257L86.4342 37.6787L86.3792 37.7317L86.3242 37.7837L86.2682 37.8347L86.2122 37.8857L86.1552 37.9357L86.0972 37.9847L86.0392 38.0337L85.9802 38.0817L85.9212 38.1287L85.8612 38.1757L85.8002 38.2207L85.7392 38.2667L85.6772 38.3107L85.6152 38.3547L85.5522 38.3977L85.4892 38.4397L85.4252 38.4817L85.3612 38.5217L85.2962 38.5617L85.2302 38.6017L85.1642 38.6397L85.0982 38.6777L85.0312 38.7147L84.9642 38.7507L84.8962 38.7857L84.8272 38.8207L84.7582 38.8537L84.6892 38.8867L84.6192 38.9197L84.5492 38.9507L84.4782 38.9807L84.4072 39.0107L84.3352 39.0397L84.2632 39.0677L84.1902 39.0947L84.1172 39.1207L84.0442 39.1457L83.9702 39.1707L83.8962 39.1937L83.8212 39.2167L83.7472 39.2387L83.6712 39.2597L83.5962 39.2797L83.5192 39.2987L83.4432 39.3167L83.3662 39.3337L83.2892 39.3507L83.2122 39.3657L83.1342 39.3797L83.0562 39.3937L82.9782 39.4057L82.8992 39.4177L82.8202 39.4277L82.7412 39.4377L82.6612 39.4467L82.5812 39.4537L82.5012 39.4607L82.4212 39.4657L82.3402 39.4707L82.2602 39.4747L82.1792 39.4767L82.0972 39.4787H82.0192L62.9792 39.4947L62.8592 39.4877L62.7402 39.4657L62.6252 39.4297L62.5142 39.3807L62.4112 39.3177L62.3162 39.2437L62.2302 39.1587L62.1562 39.0637L62.0932 38.9597L62.0442 38.8497L62.0082 38.7347L61.9862 38.6157L61.9782 38.4957L61.9862 38.3747L62.0072 38.2557L62.0432 38.1407L62.0932 38.0307L62.1552 37.9267L62.2292 37.8317L62.3152 37.7467L62.4102 37.6717L62.5132 37.6097L62.6232 37.5597L62.7382 37.5237L62.8572 37.5017L62.9782 37.4947L82.0122 37.4787H82.0722L82.1282 37.4777L82.1842 37.4757L82.2392 37.4737L82.2942 37.4697L82.3492 37.4667L82.4042 37.4617L82.4592 37.4567L82.5132 37.4507L82.5682 37.4437L82.6212 37.4367L82.6752 37.4287L82.7292 37.4207L82.7822 37.4117L82.8352 37.4017L82.8882 37.3907L82.9402 37.3797L82.9932 37.3677L83.0452 37.3557L83.0972 37.3427L83.1482 37.3287L83.2002 37.3147L83.2512 37.2997L83.3022 37.2847L83.3522 37.2687L83.4022 37.2517L83.4522 37.2347L83.5022 37.2167L83.5522 37.1977L83.6012 37.1787L83.6502 37.1597L83.6982 37.1387L83.7462 37.1187L83.7942 37.0967L83.8422 37.0747L83.8902 37.0527L83.9372 37.0297L83.9832 37.0057L84.0302 36.9817L84.0762 36.9567L84.1222 36.9317L84.1672 36.9057L84.2122 36.8797L84.2572 36.8527L84.3012 36.8257L84.3452 36.7977L84.3892 36.7697L84.4332 36.7407L84.4762 36.7107L84.5182 36.6807L84.5602 36.6507L84.6022 36.6197L84.6442 36.5877L84.6852 36.5567L84.7262 36.5237L84.7662 36.4907L84.8062 36.4577L84.8452 36.4237L84.8842 36.3897L84.9232 36.3547L84.9612 36.3197L84.9992 36.2837L85.0372 36.2477L85.0742 36.2117L85.1102 36.1747L85.1462 36.1367L85.1822 36.0987L85.2172 36.0607L85.2522 36.0217L85.2862 35.9827L85.3202 35.9437L85.3532 35.9037L85.3862 35.8637L85.4192 35.8227L85.4512 35.7817L85.4822 35.7397L85.5132 35.6977L85.5432 35.6557L85.5732 35.6127L85.6032 35.5697L85.6322 35.5267L85.6602 35.4827L85.6882 35.4387L85.7152 35.3947L85.7422 35.3497L85.7692 35.3047L85.7942 35.2597L85.8202 35.2137L85.8442 35.1677L85.8682 35.1207L85.8922 35.0737L85.9152 35.0267L85.9382 34.9797L85.9592 34.9317L85.9812 34.8837L86.0022 34.8357L86.0222 34.7867L86.0412 34.7387L86.0602 34.6887L86.0792 34.6397L86.0972 34.5897L86.1142 34.5397L86.1312 34.4897L86.1472 34.4387L86.1622 34.3887L86.1772 34.3377L86.1912 34.2857L86.2052 34.2347L86.2182 34.1827L86.2302 34.1307L86.2422 34.0777L86.2532 34.0257L86.2642 33.9727L86.2742 33.9197L86.2832 33.8667L86.2912 33.8127L86.2992 33.7587L86.3062 33.7047L86.3132 33.6507L86.3192 33.5967L86.3242 33.5417L86.3292 33.4867L86.3322 33.4317L86.3362 33.3767L86.3382 33.3217L86.3402 33.2657L86.3412 33.2097V33.1507V22.5057V22.4467L86.3402 22.3907L86.3382 22.3347L86.3362 22.2797L86.3322 22.2247L86.3292 22.1697L86.3242 22.1147L86.3192 22.0597L86.3132 22.0057L86.3062 21.9507L86.2992 21.8967L86.2912 21.8437L86.2832 21.7897L86.2742 21.7367L86.2642 21.6837L86.2532 21.6307L86.2422 21.5787L86.2302 21.5257L86.2182 21.4737L86.2052 21.4217L86.1912 21.3707L86.1772 21.3187L86.1622 21.2677L86.1472 21.2167L86.1312 21.1667L86.1142 21.1167L86.0972 21.0667L86.0792 21.0167L86.0602 20.9667L86.0412 20.9177L86.0222 20.8687L86.0022 20.8207L85.9812 20.7727L85.9592 20.7247L85.9382 20.6767L85.9152 20.6287L85.8922 20.5817L85.8682 20.5357L85.8442 20.4887L85.8202 20.4427L85.7942 20.3967L85.7682 20.3517L85.7422 20.3067L85.7152 20.2617L85.6882 20.2177L85.6602 20.1737L85.6322 20.1297L85.6032 20.0857L85.5732 20.0427L85.5432 20.0007L85.5132 19.9587L85.4822 19.9167L85.4512 19.8747L85.4192 19.8337L85.3862 19.7927L85.3532 19.7527L85.3202 19.7127L85.2862 19.6737L85.2522 19.6347L85.2172 19.5957L85.1822 19.5577L85.1462 19.5197L85.1102 19.4817L85.0742 19.4447L85.0372 19.4087L84.9992 19.3727L84.9612 19.3367L84.9232 19.3017L84.8842 19.2667L84.8452 19.2327L84.8062 19.1987L84.7662 19.1657L84.7262 19.1327L84.6852 19.0997L84.6442 19.0677L84.6022 19.0367L84.5602 19.0057L84.5182 18.9757L84.4762 18.9457L84.4332 18.9157L84.3892 18.8867L84.3452 18.8587L84.3012 18.8307L84.2572 18.8037L84.2122 18.7767L84.1672 18.7497L84.1222 18.7247L84.0762 18.6987L84.0302 18.6747L83.9832 18.6507L83.9372 18.6267L83.8892 18.6037L83.8422 18.5807L83.7942 18.5597L83.7462 18.5377L83.6982 18.5167L83.6502 18.4967L83.6012 18.4777L83.5522 18.4577L83.5022 18.4397L83.4522 18.4217L83.4022 18.4047L83.3522 18.3877L83.3022 18.3717L83.2512 18.3567L83.2002 18.3417L83.1482 18.3277L83.0972 18.3137L83.0452 18.3007L82.9932 18.2877L82.9402 18.2767L82.8882 18.2657L82.8352 18.2547L82.7822 18.2447L82.7292 18.2357L82.6752 18.2277L82.6212 18.2197L82.5682 18.2127L82.5132 18.2057L82.4592 18.1997L82.4042 18.1947L82.3492 18.1897L82.2942 18.1867L82.2392 18.1827L82.1842 18.1807L82.1282 18.1787L82.0722 18.1777H82.0132H55.3282H55.2692L55.2132 18.1787L55.1572 18.1807L55.1022 18.1827L55.0472 18.1867L54.9922 18.1897L54.9372 18.1947L54.8822 18.1997L54.8282 18.2057L54.7742 18.2127L54.7202 18.2197L54.6662 18.2277L54.6122 18.2357L54.5592 18.2447L54.5062 18.2547L54.4532 18.2657L54.4012 18.2767L54.3482 18.2877L54.2962 18.3007L54.2442 18.3137L54.1932 18.3277L54.1412 18.3417L54.0902 18.3567L54.0402 18.3717L53.9892 18.3877L53.9392 18.4047L53.8892 18.4217L53.8392 18.4397L53.7902 18.4577L53.7402 18.4777L53.6912 18.4967L53.6432 18.5167L53.5952 18.5377L53.5472 18.5597L53.4992 18.5807L53.4522 18.6037L53.4042 18.6267L53.3582 18.6507L53.3112 18.6747L53.2652 18.6987L53.2192 18.7247L53.1742 18.7497L53.1292 18.7767L53.0842 18.8037L53.0402 18.8307L52.9962 18.8587L52.9522 18.8867L52.9082 18.9157L52.8652 18.9457L52.8232 18.9757L52.7812 19.0057L52.7392 19.0367L52.6972 19.0677L52.6562 19.0997L52.6152 19.1327L52.5752 19.1657L52.5352 19.1987L52.4962 19.2327L52.4572 19.2667L52.4182 19.3017L52.3802 19.3367L52.3422 19.3727L52.3042 19.4087L52.2672 19.4447L52.2312 19.4817L52.1952 19.5197L52.1592 19.5577L52.1242 19.5957L52.0892 19.6347L52.0552 19.6737L52.0212 19.7127L51.9882 19.7527L51.9552 19.7927L51.9222 19.8337L51.8902 19.8747L51.8592 19.9167L51.8282 19.9587L51.7982 20.0007L51.7682 20.0427L51.7382 20.0857L51.7092 20.1297L51.6812 20.1727L51.6532 20.2177L51.6262 20.2617L51.5992 20.3067L51.5732 20.3517L51.5472 20.3967L51.5222 20.4427L51.4972 20.4887L51.4732 20.5357L51.4492 20.5817L51.4262 20.6287L51.4042 20.6767L51.3822 20.7247L51.3602 20.7727L51.3392 20.8207L51.3192 20.8687L51.3002 20.9177L51.2812 20.9667L51.2622 21.0167L51.2442 21.0667L51.2272 21.1167L51.2102 21.1667L51.1942 21.2167L51.1792 21.2677L51.1642 21.3187L51.1502 21.3707L51.1362 21.4217L51.1232 21.4737L51.1112 21.5257L51.0992 21.5787L51.0882 21.6307L51.0772 21.6837L51.0672 21.7367L51.0582 21.7897L51.0502 21.8437L51.0422 21.8967L51.0352 21.9507L51.0282 22.0057L51.0222 22.0597L51.0172 22.1147L51.0122 22.1697L51.0092 22.2247L51.0052 22.2797L51.0032 22.3347L51.0012 22.3907L51.0002 22.4467V33.2107L51.0012 33.2677L51.0052 33.3807L51.0082 33.4367L51.0122 33.4937L51.0162 33.5487L51.0212 33.6047L51.0262 33.6597L51.0322 33.7157L51.0392 33.7697L51.0462 33.8247L51.0542 33.8797L51.0722 33.9877L51.0822 34.0407L51.0922 34.0947L51.1032 34.1477L51.1152 34.1997L51.1272 34.2527L51.1532 34.3567L51.1672 34.4087L51.1822 34.4597L51.1972 34.5117L51.2122 34.5617L51.2292 34.6127L51.2452 34.6627L51.2632 34.7127L51.2802 34.7627L51.3372 34.9097L51.3572 34.9577L51.3992 35.0537L51.4202 35.1007L51.4422 35.1477L51.4652 35.1937L51.4882 35.2407L51.5122 35.2867L51.5602 35.3767L51.5862 35.4217L51.6112 35.4667L51.6372 35.5107L51.6642 35.5537L51.6912 35.5977L51.7182 35.6397L51.7462 35.6827L51.8042 35.7667L51.8332 35.8077L51.8932 35.8897L51.9242 35.9297L51.9552 35.9687L52.0192 36.0467L52.0522 36.0857L52.0852 36.1237L52.1182 36.1607L52.1862 36.2347L52.2562 36.3067L52.2912 36.3417L52.3272 36.3767L52.3632 36.4107L52.4002 36.4447L52.4372 36.4777L52.4752 36.5107L52.5122 36.5437L52.5512 36.5757L52.5892 36.6067L52.6282 36.6377L52.6682 36.6687L52.7072 36.6987L52.7482 36.7277L52.7882 36.7567L52.8292 36.7857L52.8702 36.8137L52.9542 36.8677L52.9962 36.8937L53.0822 36.9457L53.1252 36.9707L53.2132 37.0187L53.2572 37.0417L53.3022 37.0647L53.3472 37.0867L53.3922 37.1077L53.4842 37.1497L53.5302 37.1697L53.6242 37.2077L53.6712 37.2257L53.7192 37.2437L53.7672 37.2607L53.8152 37.2767L53.9132 37.3087L53.9622 37.3227L54.0622 37.3507L54.1122 37.3637L54.1622 37.3757L54.2132 37.3877L54.2642 37.3987L54.3162 37.4087L54.3672 37.4187L54.4192 37.4277L54.4722 37.4357L54.5242 37.4437L54.5772 37.4507L54.6312 37.4577L54.6842 37.4637L54.7382 37.4687L54.7922 37.4727L54.8472 37.4767L54.9572 37.4827L55.0122 37.4847L55.0682 37.4857H55.1302L55.2512 37.4937L55.3692 37.5167L55.4842 37.5527L55.5942 37.6037L55.6972 37.6667L55.7922 37.7417L55.8772 37.8277L55.9502 37.9227L56.0122 38.0267L56.0612 38.1367L56.0962 38.2527L56.1172 38.3717L56.1242 38.4917L56.1162 38.6127L56.0932 38.7317L56.0572 38.8467L56.0062 38.9557L55.9432 39.0587L55.8682 39.1537L55.7822 39.2387L55.6872 39.3127L55.5832 39.3737L55.4732 39.4227L55.3572 39.4577L55.2382 39.4797L55.1182 39.4857H55.0422L54.9612 39.4837L54.8802 39.4807L54.8002 39.4777L54.7192 39.4727L54.6392 39.4677L54.5592 39.4607L54.4802 39.4527L54.4002 39.4447L54.3222 39.4347L54.2432 39.4237L54.1652 39.4127L54.0872 39.3997L54.0092 39.3857L53.9322 39.3717L53.8562 39.3557L53.7792 39.3397L53.7032 39.3227L53.6272 39.3037L53.5522 39.2847L53.4772 39.2647L53.4032 39.2427L53.3292 39.2207L53.2552 39.1977L53.1822 39.1747L53.1092 39.1497L53.0372 39.1237L52.9652 39.0967L52.8942 39.0697L52.8232 39.0417L52.7532 39.0127L52.6832 38.9817L52.6132 38.9517L52.5442 38.9197L52.4762 38.8867L52.4082 38.8537L52.3402 38.8197L52.2732 38.7847L52.2072 38.7487L52.1412 38.7117L52.0762 38.6747L52.0112 38.6357L51.9472 38.5967L51.8832 38.5567L51.8202 38.5167L51.7572 38.4747L51.6952 38.4327L51.6342 38.3907L51.5732 38.3467L51.5132 38.3027L51.4532 38.2577L51.3942 38.2117L51.3352 38.1647L51.2782 38.1177L51.2202 38.0697L51.1642 38.0217L51.1082 37.9727L51.0522 37.9227L50.9972 37.8717L50.9432 37.8207L50.8902 37.7687L50.8372 37.7157L50.7852 37.6627L50.7332 37.6087L50.6822 37.5547L50.6322 37.4997L50.5832 37.4437L50.5342 37.3877L50.4852 37.3307L50.4382 37.2737L50.3912 37.2147L50.3452 37.1567L50.3002 37.0977L50.2552 37.0377L50.2112 36.9777L50.1672 36.9167L50.1252 36.8547L50.0832 36.7927L50.0422 36.7307L50.0012 36.6677L49.9622 36.6037L49.9232 36.5397L49.8842 36.4747L49.8472 36.4097L49.8102 36.3447L49.7742 36.2787L49.7392 36.2117L49.7042 36.1447L49.6712 36.0777L49.6382 36.0097L49.6062 35.9407L49.5742 35.8727L49.5442 35.8027L49.5142 35.7337L49.4852 35.6627L49.4562 35.5927L49.4292 35.5217L49.4022 35.4507L49.3772 35.3787L49.3522 35.3067L49.3272 35.2337L49.3042 35.1607L49.2822 35.0877L49.2602 35.0137L49.2392 34.9397L49.2192 34.8657L49.2002 34.7907L49.1812 34.7157L49.1642 34.6407L49.1472 34.5647L49.1322 34.4887L49.1172 34.4117L49.1032 34.3357L49.0902 34.2587L49.0772 34.1807L49.0662 34.1037L49.0552 34.0257L49.0462 33.9477L49.0372 33.8697L49.0292 33.7907L49.0222 33.7117L49.0162 33.6327L49.0112 33.5537L49.0072 33.4737L49.0042 33.3937L49.0022 33.3137L49.0002 33.2337V33.1567V22.4997V22.4217L49.0022 22.3397L49.0042 22.2587L49.0082 22.1787L49.0132 22.0977L49.0182 22.0177L49.0252 21.9377L49.0322 21.8577L49.0412 21.7777L49.0512 21.6987L49.0612 21.6197L49.0732 21.5407L49.0852 21.4627L49.0992 21.3847L49.1132 21.3067L49.1282 21.2297L49.1452 21.1527L49.1622 21.0757L49.1802 20.9987L49.1992 20.9227L49.2192 20.8477L49.2402 20.7717L49.2622 20.6967L49.2852 20.6227L49.3082 20.5487L49.3332 20.4747L49.3582 20.4017L49.3842 20.3287L49.4112 20.2557L49.4392 20.1837L49.4682 20.1117L49.4982 20.0407L49.5282 19.9697L49.5592 19.8997L49.5922 19.8297L49.6242 19.7607L49.6582 19.6917L49.6932 19.6227L49.7282 19.5547L49.7642 19.4877L49.8012 19.4207L49.8392 19.3547L49.8772 19.2887L49.9172 19.2227L49.9572 19.1577L49.9972 19.0937L50.0392 19.0297L50.0812 18.9667L50.1242 18.9037L50.1682 18.8407L50.2122 18.7797L50.2582 18.7187L50.3032 18.6577L50.3502 18.5977L50.3972 18.5387L50.4452 18.4797L50.4942 18.4217L50.5432 18.3637L50.5932 18.3067L50.6442 18.2507L50.6952 18.1947L50.7472 18.1397L50.8002 18.0847L50.8532 18.0307L50.9072 17.9777L50.9622 17.9247L51.0172 17.8727L51.0732 17.8217L51.1292 17.7707L51.1862 17.7207L51.2442 17.6717L51.3022 17.6227L51.3612 17.5747L51.4202 17.5277L51.4802 17.4807L51.5412 17.4347L51.6022 17.3897L51.6642 17.3457L51.7262 17.3017L51.7892 17.2587L51.8522 17.2167L51.9162 17.1747L51.9802 17.1347L52.0452 17.0947L52.1112 17.0547L52.1772 17.0167L52.2432 16.9787L52.3102 16.9417L52.3782 16.9057L52.4462 16.8707L52.5142 16.8357L52.5832 16.8017L52.6522 16.7687L52.7222 16.7367L52.7932 16.7057L52.8632 16.6757L52.9352 16.6457L53.0062 16.6167L53.0782 16.5887L53.1512 16.5617L53.2242 16.5357L53.2972 16.5107L53.3712 16.4857L53.4452 16.4617L53.5202 16.4397L53.5952 16.4177L53.6702 16.3967L53.7452 16.3767L53.8222 16.3577L53.8982 16.3397L53.9752 16.3227L54.0522 16.3057L54.1292 16.2907L54.2072 16.2767L54.2852 16.2627L54.3632 16.2507L54.4422 16.2387L54.5212 16.2277L54.6002 16.2187L54.6802 16.2097L54.7602 16.2027L54.8402 16.1957L54.9202 16.1897L55.0012 16.1857L55.0812 16.1817L55.1622 16.1797L55.2442 16.1777H82.0972Z" fill="white"/>
<path fill-rule="evenodd" clip-rule="evenodd" d="M55.3207 37.4951L55.3757 37.4991L55.4297 37.5061L55.4837 37.5161L55.5377 37.5291L55.5907 37.5451L55.6427 37.5641L55.6927 37.5861L55.7427 37.6101L55.7907 37.6371L55.8367 37.6671L55.8817 37.6991L55.9247 37.7331L55.9657 37.7701L56.0047 37.8091L56.0407 37.8511L56.0757 37.8941L56.1067 37.9391L56.1367 37.9851L56.1637 38.0341L56.1877 38.0831L56.2087 38.1341L56.2267 38.1861L56.2427 38.2391L56.2547 38.2921L56.2647 38.3471L56.2717 38.4011L56.2747 38.4561L56.2757 38.5111L56.2127 42.2341L62.3117 37.6921L62.3577 37.6611L62.4037 37.6321L62.4527 37.6051L62.5017 37.5811L62.5527 37.5601L62.6047 37.5421L62.6577 37.5271L62.7117 37.5141L62.7657 37.5051L62.8207 37.4981L62.8757 37.4951H62.9307L62.9857 37.4971L63.0407 37.5031L63.0947 37.5121L63.1487 37.5241L63.2017 37.5381L63.2547 37.5561L63.3057 37.5761L63.3557 37.5991L63.4037 37.6251L63.4507 37.6541L63.4967 37.6851L63.5407 37.7191L63.5817 37.7551L63.6217 37.7931L63.6597 37.8331L63.6947 37.8751L63.7277 37.9201L63.7577 37.9651L63.7857 38.0131L63.8107 38.0621L63.8337 38.1121L63.8527 38.1641L63.8697 38.2161L63.8837 38.2701L63.8947 38.3241L63.9027 38.3781L63.9077 38.4331L63.9097 38.4881L63.9087 38.5431L63.9037 38.5981L63.8967 38.6531L63.8867 38.7071L63.8737 38.7611L63.8577 38.8131L63.8387 38.8651L63.8167 38.9161L63.7917 38.9651L63.7647 39.0131L63.7347 39.0591L63.7027 39.1041L63.6677 39.1461L63.6307 39.1871L63.5917 39.2261L63.5497 39.2621L63.5067 39.2971L55.7747 45.0541L55.7307 45.0851L55.6847 45.1141L55.6367 45.1401L55.5877 45.1641L55.5377 45.1841L55.4867 45.2031L55.4347 45.2181L55.3817 45.2311L55.3287 45.2401L55.2747 45.2471L55.2197 45.2511H55.1657L55.1117 45.2491L55.0577 45.2441L55.0037 45.2361L54.9507 45.2251L54.8977 45.2121L54.8457 45.1951L54.7957 45.1761L54.7457 45.1531L54.6977 45.1291L54.6507 45.1011L54.6047 45.0711L54.5617 45.0391L54.5197 45.0041L54.4797 44.9681L54.4417 44.9291L54.4057 44.8881L54.3727 44.8451L54.3417 44.8001L54.3127 44.7541L54.2867 44.7061L54.2637 44.6571L54.2427 44.6071L54.2247 44.5561L54.2097 44.5031L54.1977 44.4511L54.1887 44.3971L54.1817 44.3431L54.1787 44.2891L54.1777 44.2341L54.2757 38.4771L54.2787 38.4221L54.2837 38.3681L54.2927 38.3131L54.3037 38.2591L54.3187 38.2061L54.3357 38.1541L54.3557 38.1021L54.3787 38.0521L54.4047 38.0041L54.4327 37.9561L54.4637 37.9111L54.4977 37.8671L54.5327 37.8251L54.5707 37.7851L54.6107 37.7471L54.6537 37.7121L54.6977 37.6791L54.7427 37.6481L54.7907 37.6201L54.8397 37.5951L54.8897 37.5721L54.9407 37.5521L54.9937 37.5351L55.0467 37.5211L55.1007 37.5101L55.1557 37.5021L55.2097 37.4971L55.2657 37.4941L55.3207 37.4951Z" fill="white"/>
<path d="M68.2155 30.8081L67.7725 24.5491V21.9321H69.5695V24.5491L69.1505 30.8081H68.2155ZM67.8375 33.7401V32.0891H69.5045V33.7401H67.8375Z" fill="white"/>
</g>
<defs>
<clipPath id="clip0_103_98">
<rect width="100" height="100" fill="white"/>
</clipPath>
</defs>
</svg>
