<svg width="69" height="68" viewBox="0 0 69 68" fill="none" xmlns="http://www.w3.org/2000/svg">
<path d="M54.1948 14.1732C51.6318 11.5862 48.5789 9.53505 45.2142 8.13938C41.8496 6.7437 38.2405 6.03143 34.5974 6.04411C19.3333 6.04411 6.89267 18.4752 6.89267 33.7277C6.89267 38.6163 8.17867 43.3652 10.5829 47.5555L6.66902 61.9141L21.3461 58.059C25.3998 60.2659 29.9567 61.4392 34.5974 61.4392C49.8616 61.4392 62.3022 49.0081 62.3022 33.7556C62.3022 26.3528 59.4227 19.397 54.1948 14.1732ZM34.5974 56.7461C30.4599 56.7461 26.4062 55.6287 22.8558 53.5336L22.0171 53.0307L13.2947 55.3214L15.6151 46.8292L15.0559 45.9632C12.7572 42.2952 11.5366 38.0555 11.5334 33.7277C11.5334 21.0452 21.8773 10.7093 34.5695 10.7093C40.7199 10.7093 46.5068 13.1117 50.8401 17.4695C52.9857 19.6036 54.686 22.1421 55.8426 24.9377C56.9991 27.7333 57.5888 30.7306 57.5776 33.7556C57.6335 46.4381 47.2896 56.7461 34.5974 56.7461ZM47.2337 39.5381C46.5348 39.2029 43.1241 37.5268 42.5091 37.2754C41.8661 37.0519 41.4188 36.9402 40.9435 37.6106C40.4683 38.309 39.1543 39.8734 38.7629 40.3203C38.3715 40.7952 37.9522 40.8511 37.2533 40.4879C36.5544 40.1527 34.3179 39.3985 31.69 37.0519C29.6212 35.2082 28.2513 32.9455 27.832 32.2471C27.4406 31.5487 27.7761 31.1856 28.1395 30.8224C28.447 30.5151 28.8384 30.0123 29.1739 29.6212C29.5094 29.2301 29.6492 28.9229 29.8728 28.4759C30.0965 28.001 29.9846 27.6099 29.8169 27.2747C29.6492 26.9395 28.2513 23.5314 27.6922 22.1347C27.1331 20.7938 26.546 20.9614 26.1266 20.9335H24.7847C24.3095 20.9335 23.5826 21.1011 22.9396 21.7994C22.3246 22.4978 20.5354 24.1739 20.5354 27.582C20.5354 30.99 23.0235 34.2864 23.359 34.7333C23.6944 35.2082 28.2513 42.192 35.1845 45.181C36.8339 45.9073 38.1199 46.3263 39.1264 46.6336C40.7758 47.1644 42.2854 47.0806 43.4875 46.913C44.8295 46.7174 47.5971 45.2369 48.1563 43.6166C48.7433 41.9964 48.7433 40.6276 48.5477 40.3203C48.352 40.013 47.9326 39.8734 47.2337 39.5381Z" fill="white"/>
</svg>
